<?xml version="1.0" encoding="UTF-8" standalone="no"?>
<svg
   xmlns:dc="http://purl.org/dc/elements/1.1/"
   xmlns:cc="http://creativecommons.org/ns#"
   xmlns:rdf="http://www.w3.org/1999/02/22-rdf-syntax-ns#"
   xmlns:svg="http://www.w3.org/2000/svg"
   xmlns="http://www.w3.org/2000/svg"
   id="svg4"
   version="1.1"
   xml:space="default"
   font-size="0"
   preserveAspectRatio="xMidYMid"
   viewBox="0, 0, 20, 28"
   overflow="inherit"
   height="28"
   width="20"
   y="0"
   x="0">
  <metadata
     id="metadata10">
    <rdf:RDF>
      <cc:Work
         rdf:about="">
        <dc:format>image/svg+xml</dc:format>
        <dc:type
           rdf:resource="http://purl.org/dc/dcmitype/StillImage" />
      </cc:Work>
    </rdf:RDF>
  </metadata>
  <defs
     id="defs8" />
  <g
     id="text2"
     style="font-size:20px;font-family:'Menoe Grotesque Pro';fill:#000000"
     aria-label="Ñ">
    <path
       id="path12"
       style="font-size:20px;font-family:'Menoe Grotesque Pro';fill:#000000"
       d="m 14.4,15.2 c 0,-2.96 -2.06,-5 -4.78,-5 -2.04,0 -3.72,1.14 -4.42,2.96 l 1.46,0.66 c 0.48,-1.24 1.6,-2.04 2.94,-2.04 1.62,0 2.86,1.08 3.16,2.66 H 8.5 v 1.46 h 4.28 c -0.28,1.62 -1.54,2.72 -3.18,2.72 -1.54,0 -2.78,-1 -3.12,-2.48 L 5,16.62 c 0.54,2.16 2.34,3.58 4.62,3.58 2.72,0 4.78,-2.06 4.78,-5 z" />
  </g>
</svg>
