<?xml version="1.0" encoding="UTF-8" standalone="no"?>
<svg
   xmlns:dc="http://purl.org/dc/elements/1.1/"
   xmlns:cc="http://creativecommons.org/ns#"
   xmlns:rdf="http://www.w3.org/1999/02/22-rdf-syntax-ns#"
   xmlns:svg="http://www.w3.org/2000/svg"
   xmlns="http://www.w3.org/2000/svg"
   id="svg4"
   version="1.1"
   xml:space="default"
   font-size="0"
   preserveAspectRatio="xMidYMid"
   viewBox="0, 0, 20, 28"
   overflow="inherit"
   height="28"
   width="20"
   y="0"
   x="0">
  <metadata
     id="metadata10">
    <rdf:RDF>
      <cc:Work
         rdf:about="">
        <dc:format>image/svg+xml</dc:format>
        <dc:type
           rdf:resource="http://purl.org/dc/dcmitype/StillImage" />
      </cc:Work>
    </rdf:RDF>
  </metadata>
  <defs
     id="defs8" />
  <g
     id="text2"
     style="font-size:20px;font-family:'Menoe Grotesque Pro';fill:#000000"
     aria-label="j">
    <path
       id="path12"
       style="font-size:20px;font-family:'Menoe Grotesque Pro';fill:#000000"
       d="m 11.72,8.96 c 0.96,0 1.74,-0.78 1.74,-1.74 0,-0.96 -0.78,-1.74 -1.74,-1.74 -0.96,0 -1.74,0.78 -1.74,1.74 0,0.96 0.78,1.74 1.74,1.74 z M 6.44,10.4 v 1.48 h 5.28 v 8.26 c 0,1.42 -0.86,2.34 -2.4,2.34 -1.42,0 -2.46,-0.72 -2.46,-1.9 0,-0.52 0.18,-0.9 0.4,-1.2 L 6.1,18.7 c -0.48,0.56 -0.68,1.32 -0.68,2.04 0,2.22 1.88,3.26 3.78,3.26 2.58,0 4.12,-1.62 4.12,-4.06 V 10.4 Z" />
  </g>
</svg>
