<?xml version="1.0" encoding="UTF-8" standalone="no"?>
<svg
   xmlns:dc="http://purl.org/dc/elements/1.1/"
   xmlns:cc="http://creativecommons.org/ns#"
   xmlns:rdf="http://www.w3.org/1999/02/22-rdf-syntax-ns#"
   xmlns:svg="http://www.w3.org/2000/svg"
   xmlns="http://www.w3.org/2000/svg"
   id="svg4"
   version="1.1"
   xml:space="default"
   font-size="0"
   preserveAspectRatio="xMidYMid"
   viewBox="0, 0, 20, 28"
   overflow="inherit"
   height="28"
   width="20"
   y="0"
   x="0">
  <metadata
     id="metadata10">
    <rdf:RDF>
      <cc:Work
         rdf:about="">
        <dc:format>image/svg+xml</dc:format>
        <dc:type
           rdf:resource="http://purl.org/dc/dcmitype/StillImage" />
      </cc:Work>
    </rdf:RDF>
  </metadata>
  <defs
     id="defs8" />
  <g
     id="text2"
     style="font-style:italic;font-size:20px;font-family:'Menoe Grotesque Pro';fill:#000000"
     aria-label="D">
    <path
       id="path12"
       style="font-style:italic;font-size:20px;font-family:'Menoe Grotesque Pro';fill:#000000"
       d="m 9.2,20.14 c 3.58,0 6.34,-2.04 7.08,-6.62 C 16.96,9.12 14.62,6.88 10.9,6.88 10.1,6.88 9.22,6.9 8.42,7 L 6.36,20 c 0.86,0.12 1.9,0.14 2.84,0.14 z m 1.76,-11.8 c 3.04,0 4.12,2.28 3.7,5 -0.48,2.9 -1.86,5.32 -5.3,5.32 -0.38,0 -0.8,-0.04 -1.2,-0.08 L 9.78,8.42 c 0.4,-0.04 0.8,-0.08 1.18,-0.08 z" />
  </g>
</svg>
