<?xml version="1.0" encoding="UTF-8" standalone="no"?>
<svg
   xmlns:dc="http://purl.org/dc/elements/1.1/"
   xmlns:cc="http://creativecommons.org/ns#"
   xmlns:rdf="http://www.w3.org/1999/02/22-rdf-syntax-ns#"
   xmlns:svg="http://www.w3.org/2000/svg"
   xmlns="http://www.w3.org/2000/svg"
   id="svg4"
   version="1.1"
   xml:space="default"
   font-size="0"
   preserveAspectRatio="xMidYMid"
   viewBox="0, 0, 20, 28"
   overflow="inherit"
   height="28"
   width="20"
   y="0"
   x="0">
  <metadata
     id="metadata10">
    <rdf:RDF>
      <cc:Work
         rdf:about="">
        <dc:format>image/svg+xml</dc:format>
        <dc:type
           rdf:resource="http://purl.org/dc/dcmitype/StillImage" />
      </cc:Work>
    </rdf:RDF>
  </metadata>
  <defs
     id="defs8" />
  <g
     id="text2"
     style="font-style:italic;font-size:20px;font-family:'Menoe Grotesque Pro';fill:#000000"
     aria-label="ш">
    <path
       id="path12"
       style="font-style:italic;font-size:20px;font-family:'Menoe Grotesque Pro';fill:#000000"
       d="m 11.98,18.76 c -0.58,0 -0.94,-0.48 -0.78,-1.44 L 12.3,10.4 H 10.78 L 9.82,16.44 C 9.54,17.9 8.88,18.76 8.08,18.76 7.5,18.76 7.14,18.28 7.3,17.32 L 8.4,10.4 H 6.88 l -1.12,7.04 c -0.26,1.68 0.54,2.76 1.92,2.76 0.76,0 1.48,-0.48 2.04,-1.34 0.26,0.84 0.92,1.34 1.86,1.34 0.6,0 1.18,-0.3 1.68,-0.86 -0.04,0.22 -0.06,0.42 -0.1,0.66 h 1.52 l 1.52,-9.6 h -1.52 l -0.92,5.8 c -0.24,1.6 -0.94,2.56 -1.78,2.56 z" />
  </g>
</svg>
