<?xml version="1.0" encoding="UTF-8" standalone="no"?>
<svg
   xmlns:dc="http://purl.org/dc/elements/1.1/"
   xmlns:cc="http://creativecommons.org/ns#"
   xmlns:rdf="http://www.w3.org/1999/02/22-rdf-syntax-ns#"
   xmlns:svg="http://www.w3.org/2000/svg"
   xmlns="http://www.w3.org/2000/svg"
   id="svg4"
   version="1.1"
   xml:space="default"
   font-size="0"
   preserveAspectRatio="xMidYMid"
   viewBox="0, 0, 20, 28"
   overflow="inherit"
   height="28"
   width="20"
   y="0"
   x="0">
  <metadata
     id="metadata10">
    <rdf:RDF>
      <cc:Work
         rdf:about="">
        <dc:format>image/svg+xml</dc:format>
        <dc:type
           rdf:resource="http://purl.org/dc/dcmitype/StillImage" />
      </cc:Work>
    </rdf:RDF>
  </metadata>
  <defs
     id="defs8" />
  <g
     id="text2"
     style="font-size:20px;font-family:'Menoe Grotesque Pro';fill:#000000"
     aria-label="а">
    <path
       id="path12"
       style="font-size:20px;font-family:'Menoe Grotesque Pro';fill:#000000"
       d="m 16.04,17.48 -1.36,-0.32 c 0,1 -0.34,1.64 -0.92,1.64 -0.42,0 -0.68,-0.3 -0.68,-0.7 v -4.72 c 0,-1.9 -1.4,-3.18 -3.72,-3.18 -2.18,0 -3.82,1.2 -3.82,2.86 0,0.06 0.04,0.32 0.08,0.6 l 1.5,-0.3 C 7.1,13.22 7.08,13.12 7.08,13.1 c 0,-0.84 0.92,-1.44 2.16,-1.44 1.1,0 2.24,0.52 2.24,1.92 v 0.72 c -1.12,0.12 -2.14,0.22 -3.14,0.44 -1.86,0.38 -3.06,1.36 -3.06,2.96 0,1.5 1.2,2.5 3.04,2.5 1.26,0 2.4,-0.54 3.2,-1.46 0.2,0.78 0.98,1.46 2.08,1.46 1.48,0 2.44,-1.08 2.44,-2.72 z m -9.1,0.04 c 0,-0.62 0.5,-1.22 1.36,-1.46 0.76,-0.22 1.98,-0.4 3.18,-0.54 v 1.76 c -0.68,0.94 -1.8,1.54 -2.98,1.54 -0.94,0 -1.56,-0.52 -1.56,-1.3 z" />
  </g>
</svg>
