<?xml version="1.0" encoding="UTF-8" standalone="no"?>
<svg
   xmlns:dc="http://purl.org/dc/elements/1.1/"
   xmlns:cc="http://creativecommons.org/ns#"
   xmlns:rdf="http://www.w3.org/1999/02/22-rdf-syntax-ns#"
   xmlns:svg="http://www.w3.org/2000/svg"
   xmlns="http://www.w3.org/2000/svg"
   id="svg4"
   version="1.1"
   xml:space="default"
   font-size="0"
   preserveAspectRatio="xMidYMid"
   viewBox="0, 0, 20, 28"
   overflow="inherit"
   height="28"
   width="20"
   y="0"
   x="0">
  <metadata
     id="metadata10">
    <rdf:RDF>
      <cc:Work
         rdf:about="">
        <dc:format>image/svg+xml</dc:format>
        <dc:type
           rdf:resource="http://purl.org/dc/dcmitype/StillImage" />
      </cc:Work>
    </rdf:RDF>
  </metadata>
  <defs
     id="defs8" />
  <g
     id="text2"
     style="font-size:20px;font-family:'Menoe Grotesque Pro';fill:#000000"
     aria-label="Ю">
    <path
       id="path12"
       style="font-size:20px;font-family:'Menoe Grotesque Pro';fill:#000000"
       d="M 15.52,13.52 C 15.52,9.14 14.38,6.8 11.9,6.8 9.62,6.8 8.46,8.78 8.3,12.52 H 6.7 V 7 H 5.1 v 13 h 1.6 v -6 h 1.58 c 0.08,4.06 1.24,6.2 3.62,6.2 2.48,0 3.62,-2.32 3.62,-6.68 z m -3.62,5.14 c -1.34,0 -1.96,-1.82 -1.96,-5.14 0,-3.34 0.62,-5.18 1.96,-5.18 1.34,0 1.96,1.84 1.96,5.18 0,3.32 -0.62,5.14 -1.96,5.14 z" />
  </g>
</svg>
