<?xml version="1.0" encoding="UTF-8" standalone="no"?>
<svg
   xmlns:dc="http://purl.org/dc/elements/1.1/"
   xmlns:cc="http://creativecommons.org/ns#"
   xmlns:rdf="http://www.w3.org/1999/02/22-rdf-syntax-ns#"
   xmlns:svg="http://www.w3.org/2000/svg"
   xmlns="http://www.w3.org/2000/svg"
   id="svg4"
   version="1.1"
   xml:space="default"
   font-size="0"
   preserveAspectRatio="xMidYMid"
   viewBox="0, 0, 20, 28"
   overflow="inherit"
   height="28"
   width="20"
   y="0"
   x="0">
  <metadata
     id="metadata10">
    <rdf:RDF>
      <cc:Work
         rdf:about="">
        <dc:format>image/svg+xml</dc:format>
        <dc:type
           rdf:resource="http://purl.org/dc/dcmitype/StillImage" />
      </cc:Work>
    </rdf:RDF>
  </metadata>
  <defs
     id="defs8" />
  <g
     id="text2"
     style="font-style:italic;font-size:20px;font-family:'Menoe Grotesque Pro';fill:#000000"
     aria-label="в">
    <path
       id="path12"
       style="font-style:italic;font-size:20px;font-family:'Menoe Grotesque Pro';fill:#000000"
       d="m 15.08,17.56 c 0.28,-1.26 -0.2,-2.22 -1.24,-2.66 0.7,-0.32 1.22,-0.86 1.4,-1.58 0.5,-1.88 -0.8,-3.12 -3.28,-3.12 -2.92,0 -5.14,1.98 -5.62,5 -0.46,3 1.24,5 4.4,5 2.34,0 4,-1.06 4.34,-2.64 z M 11.7,11.7 c 1.32,0 2.02,0.58 1.86,1.48 -0.14,0.76 -0.88,1.18 -2.06,1.28 -1,0.08 -2.28,0.16 -3.46,0.18 0.5,-1.78 1.9,-2.94 3.66,-2.94 z m 0.4,4.02 c 1.02,0 1.56,0.64 1.38,1.48 -0.2,0.96 -1.26,1.52 -2.68,1.52 -1.86,0 -2.98,-1.12 -2.96,-2.82 1.74,-0.08 3.44,-0.18 4.26,-0.18 z" />
  </g>
</svg>
