<?xml version="1.0" encoding="UTF-8" standalone="no"?>
<svg
   xmlns:dc="http://purl.org/dc/elements/1.1/"
   xmlns:cc="http://creativecommons.org/ns#"
   xmlns:rdf="http://www.w3.org/1999/02/22-rdf-syntax-ns#"
   xmlns:svg="http://www.w3.org/2000/svg"
   xmlns="http://www.w3.org/2000/svg"
   id="svg4"
   version="1.1"
   xml:space="default"
   font-size="0"
   preserveAspectRatio="xMidYMid"
   viewBox="0, 0, 20, 28"
   overflow="inherit"
   height="28"
   width="20"
   y="0"
   x="0">
  <metadata
     id="metadata10">
    <rdf:RDF>
      <cc:Work
         rdf:about="">
        <dc:format>image/svg+xml</dc:format>
        <dc:type
           rdf:resource="http://purl.org/dc/dcmitype/StillImage" />
      </cc:Work>
    </rdf:RDF>
  </metadata>
  <defs
     id="defs8" />
  <g
     id="text2"
     style="font-style:italic;font-size:20px;font-family:'Menoe Grotesque Pro';fill:#000000"
     aria-label="g">
    <path
       id="path12"
       style="font-style:italic;font-size:20px;font-family:'Menoe Grotesque Pro';fill:#000000"
       d="M 14.02,18.24 15.28,10.4 H 13.7 c -0.08,0.4 -0.12,0.76 -0.14,1.18 -0.6,-0.9 -1.58,-1.38 -2.76,-1.38 -2,0 -3.88,1.74 -4.36,4.7 -0.46,2.96 1.02,4.7 3.26,4.7 1,0 2,-0.44 2.78,-1.26 -0.54,3.1 -1.82,4.22 -3.44,4.22 -1.08,0 -1.86,-0.32 -2.32,-1.04 l -1.5,0.82 C 5.82,23.36 7,24 8.64,24 c 2.5,0 4.68,-1.38 5.38,-5.76 z M 8.06,14.9 c 0.3,-1.98 1.66,-3.26 3.08,-3.26 1.32,0 2.26,1.16 2.1,2.96 l -0.1,0.6 c -0.4,1.8 -1.72,2.96 -3.04,2.96 -1.4,0 -2.36,-1.28 -2.04,-3.26 z" />
  </g>
</svg>
