<?xml version="1.0" encoding="UTF-8" standalone="no"?>
<svg
   xmlns:dc="http://purl.org/dc/elements/1.1/"
   xmlns:cc="http://creativecommons.org/ns#"
   xmlns:rdf="http://www.w3.org/1999/02/22-rdf-syntax-ns#"
   xmlns:svg="http://www.w3.org/2000/svg"
   xmlns="http://www.w3.org/2000/svg"
   id="svg4"
   version="1.1"
   xml:space="default"
   font-size="0"
   preserveAspectRatio="xMidYMid"
   viewBox="0, 0, 20, 28"
   overflow="inherit"
   height="28"
   width="20"
   y="0"
   x="0">
  <metadata
     id="metadata10">
    <rdf:RDF>
      <cc:Work
         rdf:about="">
        <dc:format>image/svg+xml</dc:format>
        <dc:type
           rdf:resource="http://purl.org/dc/dcmitype/StillImage" />
      </cc:Work>
    </rdf:RDF>
  </metadata>
  <defs
     id="defs8" />
  <g
     id="text2"
     style="font-style:italic;font-size:20px;font-family:'Menoe Grotesque Pro';fill:#000000"
     aria-label="y">
    <path
       id="path12"
       style="font-style:italic;font-size:20px;font-family:'Menoe Grotesque Pro';fill:#000000"
       d="M 14.2,18.66 15.48,10.4 H 13.9 l -0.84,5.3 c -0.24,1.52 -1.62,2.46 -2.92,2.46 -1.24,0 -2.08,-0.78 -1.82,-2.46 l 0.84,-5.3 h -1.6 l -0.88,5.54 c -0.36,2.24 1.06,3.66 3.12,3.66 1.08,0 2.12,-0.48 2.9,-1.34 -0.5,3.14 -1.8,4.3 -3.46,4.3 -1.08,0 -1.86,-0.32 -2.32,-1.04 l -1.5,0.82 C 6.02,23.36 7.2,24 8.84,24 c 2.5,0 4.74,-1.28 5.36,-5.34 z" />
  </g>
</svg>
