<?xml version="1.0" encoding="UTF-8" standalone="no"?>
<svg
   xmlns:dc="http://purl.org/dc/elements/1.1/"
   xmlns:cc="http://creativecommons.org/ns#"
   xmlns:rdf="http://www.w3.org/1999/02/22-rdf-syntax-ns#"
   xmlns:svg="http://www.w3.org/2000/svg"
   xmlns="http://www.w3.org/2000/svg"
   id="svg4"
   version="1.1"
   xml:space="default"
   font-size="0"
   preserveAspectRatio="xMidYMid"
   viewBox="0, 0, 20, 28"
   overflow="inherit"
   height="28"
   width="20"
   y="0"
   x="0">
  <metadata
     id="metadata10">
    <rdf:RDF>
      <cc:Work
         rdf:about="">
        <dc:format>image/svg+xml</dc:format>
        <dc:type
           rdf:resource="http://purl.org/dc/dcmitype/StillImage" />
      </cc:Work>
    </rdf:RDF>
  </metadata>
  <defs
     id="defs8" />
  <g
     id="text2"
     style="font-style:italic;font-size:20px;font-family:'Menoe Grotesque Pro';fill:#000000"
     aria-label="р">
    <path
       id="path12"
       style="font-style:italic;font-size:20px;font-family:'Menoe Grotesque Pro';fill:#000000"
       d="m 7.9,20 c 0.08,-0.42 0.14,-1.04 0.16,-1.36 0.62,1 1.66,1.56 2.94,1.56 2.12,0 4.1,-1.86 4.58,-5 0.52,-3.16 -1.04,-5 -3.4,-5 -1.08,0 -2.16,0.5 -3,1.42 0.1,-0.38 0.18,-0.78 0.24,-1.22 H 7.84 L 5.72,23.8 h 1.56 z m 2.76,-1.24 c -1.5,0 -2.54,-1.4 -2.2,-3.56 0.34,-2.16 1.84,-3.56 3.32,-3.56 1.52,0 2.54,1.4 2.2,3.56 -0.34,2.16 -1.82,3.56 -3.32,3.56 z" />
  </g>
</svg>
