<?xml version="1.0" encoding="UTF-8" standalone="no"?>
<svg
   xmlns:dc="http://purl.org/dc/elements/1.1/"
   xmlns:cc="http://creativecommons.org/ns#"
   xmlns:rdf="http://www.w3.org/1999/02/22-rdf-syntax-ns#"
   xmlns:svg="http://www.w3.org/2000/svg"
   xmlns="http://www.w3.org/2000/svg"
   id="svg4"
   version="1.1"
   xml:space="default"
   font-size="0"
   preserveAspectRatio="xMidYMid"
   viewBox="0, 0, 20, 28"
   overflow="inherit"
   height="28"
   width="20"
   y="0"
   x="0">
  <metadata
     id="metadata10">
    <rdf:RDF>
      <cc:Work
         rdf:about="">
        <dc:format>image/svg+xml</dc:format>
        <dc:type
           rdf:resource="http://purl.org/dc/dcmitype/StillImage" />
      </cc:Work>
    </rdf:RDF>
  </metadata>
  <defs
     id="defs8" />
  <g
     id="text2"
     style="font-size:20px;font-family:'Menoe Grotesque Pro';fill:#000000"
     aria-label="s">
    <path
       id="path12"
       style="font-size:20px;font-family:'Menoe Grotesque Pro';fill:#000000"
       d="m 14.12,11.48 c -1.2,-0.82 -2.76,-1.28 -4.18,-1.28 -1.92,0 -3.62,0.92 -3.62,2.76 0,1.78 1.16,2.42 2.94,2.86 2.52,0.62 3.32,0.7 3.32,1.68 0,0.78 -0.8,1.26 -2.12,1.26 -1.34,0 -2.64,-0.48 -3.54,-1.24 l -1.2,1.18 c 1,0.94 2.68,1.5 4.54,1.5 2.54,0 4.04,-1.08 4.04,-2.9 0,-1.82 -1.6,-2.44 -3.44,-2.82 C 8.84,14.06 7.9,13.92 7.9,12.94 c 0,-0.76 0.58,-1.3 1.84,-1.3 1.26,0 2.52,0.4 3.42,1.08 z" />
  </g>
</svg>
