<?xml version="1.0" encoding="UTF-8" standalone="no"?>
<svg
   xmlns:dc="http://purl.org/dc/elements/1.1/"
   xmlns:cc="http://creativecommons.org/ns#"
   xmlns:rdf="http://www.w3.org/1999/02/22-rdf-syntax-ns#"
   xmlns:svg="http://www.w3.org/2000/svg"
   xmlns="http://www.w3.org/2000/svg"
   id="svg4"
   version="1.1"
   xml:space="default"
   font-size="0"
   preserveAspectRatio="xMidYMid"
   viewBox="0, 0, 20, 28"
   overflow="inherit"
   height="28"
   width="20"
   y="0"
   x="0">
  <metadata
     id="metadata10">
    <rdf:RDF>
      <cc:Work
         rdf:about="">
        <dc:format>image/svg+xml</dc:format>
        <dc:type
           rdf:resource="http://purl.org/dc/dcmitype/StillImage" />
      </cc:Work>
    </rdf:RDF>
  </metadata>
  <defs
     id="defs8" />
  <g
     id="text2"
     style="font-style:italic;font-size:20px;font-family:'Menoe Grotesque Pro';fill:#000000"
     aria-label="ф">
    <path
       id="path12"
       style="font-style:italic;font-size:20px;font-family:'Menoe Grotesque Pro';fill:#000000"
       d="m 15.94,15.26 c 0.44,-2.7 -0.76,-4.64 -3.56,-5 0.26,-1.58 0.48,-2.94 0.6,-3.66 h -1.56 c -0.1,0.72 -0.32,2.06 -0.56,3.62 -2.82,0.22 -4.66,2.18 -5.1,4.9 -0.44,2.72 0.78,4.68 3.54,5.02 -0.26,1.6 -0.48,2.92 -0.62,3.66 h 1.58 c 0.1,-0.74 0.3,-2.04 0.54,-3.62 2.9,-0.24 4.7,-2.18 5.14,-4.92 z M 11.58,15.2 c 0.18,-1.14 0.38,-2.42 0.58,-3.62 1.94,0.28 2.66,1.72 2.36,3.62 -0.3,1.88 -1.48,3.34 -3.5,3.62 0.18,-1.16 0.36,-2.4 0.56,-3.62 z m -4.4,0.02 c 0.3,-1.92 1.46,-3.36 3.48,-3.64 -0.2,1.2 -0.4,2.48 -0.58,3.62 C 9.9,16.42 9.7,17.66 9.52,18.8 7.6,18.52 6.9,17.08 7.18,15.22 Z" />
  </g>
</svg>
