<?xml version="1.0" encoding="UTF-8" standalone="no"?>
<svg
   xmlns:dc="http://purl.org/dc/elements/1.1/"
   xmlns:cc="http://creativecommons.org/ns#"
   xmlns:rdf="http://www.w3.org/1999/02/22-rdf-syntax-ns#"
   xmlns:svg="http://www.w3.org/2000/svg"
   xmlns="http://www.w3.org/2000/svg"
   id="svg4"
   version="1.1"
   xml:space="default"
   font-size="0"
   preserveAspectRatio="xMidYMid"
   viewBox="0, 0, 20, 28"
   overflow="inherit"
   height="28"
   width="20"
   y="0"
   x="0">
  <metadata
     id="metadata10">
    <rdf:RDF>
      <cc:Work
         rdf:about="">
        <dc:format>image/svg+xml</dc:format>
        <dc:type
           rdf:resource="http://purl.org/dc/dcmitype/StillImage" />
      </cc:Work>
    </rdf:RDF>
  </metadata>
  <defs
     id="defs8" />
  <g
     id="text2"
     style="font-style:italic;font-size:20px;font-family:'Menoe Grotesque Pro';fill:#000000"
     aria-label="G">
    <path
       id="path12"
       style="font-style:italic;font-size:20px;font-family:'Menoe Grotesque Pro';fill:#000000"
       d="m 15.06,19.14 0.86,-5.44 h -4.08 l -0.24,1.48 h 2.52 l -0.48,3.06 c -0.9,0.38 -1.72,0.44 -2.46,0.44 -2.86,0 -3.92,-2.12 -3.44,-5.26 0.5,-3.06 2.2,-5.1 4.82,-5.1 1.14,0 2.32,0.58 2.94,1.44 l 1.16,-1.1 C 15.82,7.48 14.52,6.8 12.48,6.8 c -3.4,0 -5.74,2.64 -6.36,6.62 -0.64,4.06 0.98,6.78 4.78,6.78 1.2,0 2.54,-0.24 4.16,-1.06 z" />
  </g>
</svg>
