<?xml version="1.0" encoding="UTF-8" standalone="no"?>
<svg
   xmlns:dc="http://purl.org/dc/elements/1.1/"
   xmlns:cc="http://creativecommons.org/ns#"
   xmlns:rdf="http://www.w3.org/1999/02/22-rdf-syntax-ns#"
   xmlns:svg="http://www.w3.org/2000/svg"
   xmlns="http://www.w3.org/2000/svg"
   id="svg4"
   version="1.1"
   xml:space="default"
   font-size="0"
   preserveAspectRatio="xMidYMid"
   viewBox="0, 0, 20, 28"
   overflow="inherit"
   height="28"
   width="20"
   y="0"
   x="0">
  <metadata
     id="metadata10">
    <rdf:RDF>
      <cc:Work
         rdf:about="">
        <dc:format>image/svg+xml</dc:format>
        <dc:type
           rdf:resource="http://purl.org/dc/dcmitype/StillImage" />
      </cc:Work>
    </rdf:RDF>
  </metadata>
  <defs
     id="defs8" />
  <g
     id="text2"
     style="font-size:20px;font-family:'Menoe Grotesque Pro';fill:#000000"
     aria-label="B">
    <path
       id="path12"
       style="font-size:20px;font-family:'Menoe Grotesque Pro';fill:#000000"
       d="m 11.4,20 c 2.16,0 3.72,-1.28 3.72,-3.58 0,-1.62 -1.08,-2.64 -2.34,-3.12 1,-0.56 1.78,-1.6 1.78,-3.08 C 14.56,8.28 13.1,7 11.34,7 H 6.4 V 20 Z M 11.02,8.38 c 1.1,0 1.88,0.78 1.88,1.94 0,1.3 -0.94,2.36 -2.04,2.36 H 8 v -4.3 z m -0.16,5.66 c 1.4,0 2.6,0.74 2.6,2.36 0,1.7 -1.24,2.22 -2.42,2.22 H 8 v -4.58 z" />
  </g>
</svg>
