<?xml version="1.0" encoding="UTF-8" standalone="no"?>
<svg
   xmlns:dc="http://purl.org/dc/elements/1.1/"
   xmlns:cc="http://creativecommons.org/ns#"
   xmlns:rdf="http://www.w3.org/1999/02/22-rdf-syntax-ns#"
   xmlns:svg="http://www.w3.org/2000/svg"
   xmlns="http://www.w3.org/2000/svg"
   id="svg4"
   version="1.1"
   xml:space="default"
   font-size="0"
   preserveAspectRatio="xMidYMid"
   viewBox="0, 0, 20, 28"
   overflow="inherit"
   height="28"
   width="20"
   y="0"
   x="0">
  <metadata
     id="metadata10">
    <rdf:RDF>
      <cc:Work
         rdf:about="">
        <dc:format>image/svg+xml</dc:format>
        <dc:type
           rdf:resource="http://purl.org/dc/dcmitype/StillImage" />
      </cc:Work>
    </rdf:RDF>
  </metadata>
  <defs
     id="defs8" />
  <g
     id="text2"
     style="font-style:italic;font-size:20px;font-family:'Menoe Grotesque Pro';fill:#000000"
     aria-label="б">
    <path
       id="path12"
       style="font-style:italic;font-size:20px;font-family:'Menoe Grotesque Pro';fill:#000000"
       d="m 15.32,15.6 c 0.48,-3.06 -1.3,-5.16 -3.8,-5.16 -1.62,0 -2.6,0.64 -3.28,1.5 0.62,-2.48 2.08,-3.42 4.94,-3.42 1.26,0 2,-0.08 2.92,-0.56 L 16.36,6.4 C 15.46,6.88 14.58,7 13.42,7 9,7 7.04,8.9 6.16,14.32 c -0.62,3.8 1.18,5.88 3.98,5.88 2.54,0 4.74,-1.9 5.18,-4.6 z m -5.1,3.02 c -1.8,0 -2.88,-1.44 -2.56,-3.42 0.3,-1.84 1.72,-3.2 3.54,-3.2 1.76,0 2.84,1.46 2.52,3.46 -0.28,1.84 -1.78,3.16 -3.5,3.16 z" />
  </g>
</svg>
