<?xml version="1.0" encoding="UTF-8" standalone="no"?>
<svg
   xmlns:dc="http://purl.org/dc/elements/1.1/"
   xmlns:cc="http://creativecommons.org/ns#"
   xmlns:rdf="http://www.w3.org/1999/02/22-rdf-syntax-ns#"
   xmlns:svg="http://www.w3.org/2000/svg"
   xmlns="http://www.w3.org/2000/svg"
   id="svg4"
   version="1.1"
   xml:space="default"
   font-size="0"
   preserveAspectRatio="xMidYMid"
   viewBox="0, 0, 20, 28"
   overflow="inherit"
   height="28"
   width="20"
   y="0"
   x="0">
  <metadata
     id="metadata10">
    <rdf:RDF>
      <cc:Work
         rdf:about="">
        <dc:format>image/svg+xml</dc:format>
        <dc:type
           rdf:resource="http://purl.org/dc/dcmitype/StillImage" />
      </cc:Work>
    </rdf:RDF>
  </metadata>
  <defs
     id="defs8" />
  <g
     id="text2"
     style="font-size:20px;font-family:'Menoe Grotesque Pro';fill:#000000"
     aria-label="ะต">
    <path
       id="path12"
       style="font-size:20px;font-family:'Menoe Grotesque Pro';fill:#000000"
       d="m 14.74,14.92 c 0,-2.88 -1.96,-4.72 -4.56,-4.72 -2.8,0 -4.86,2.06 -4.86,5 0,2.96 2.14,5 4.98,5 1.88,0 3.46,-0.82 4.28,-2.22 L 13.32,17.2 c -0.54,0.94 -1.74,1.56 -3,1.56 -1.86,0 -3.16,-1.08 -3.46,-2.8 h 7.8 c 0.06,-0.36 0.08,-0.72 0.08,-1.04 z m -4.7,-3.28 c 1.74,0 2.92,1.12 3.12,2.86 H 6.84 c 0.26,-1.74 1.46,-2.86 3.2,-2.86 z" />
  </g>
</svg>
