<?xml version="1.0" encoding="UTF-8" standalone="no"?>
<svg
   xmlns:dc="http://purl.org/dc/elements/1.1/"
   xmlns:cc="http://creativecommons.org/ns#"
   xmlns:rdf="http://www.w3.org/1999/02/22-rdf-syntax-ns#"
   xmlns:svg="http://www.w3.org/2000/svg"
   xmlns="http://www.w3.org/2000/svg"
   id="svg4"
   version="1.1"
   xml:space="default"
   font-size="0"
   preserveAspectRatio="xMidYMid"
   viewBox="0, 0, 20, 28"
   overflow="inherit"
   height="28"
   width="20"
   y="0"
   x="0">
  <metadata
     id="metadata10">
    <rdf:RDF>
      <cc:Work
         rdf:about="">
        <dc:format>image/svg+xml</dc:format>
        <dc:type
           rdf:resource="http://purl.org/dc/dcmitype/StillImage" />
      </cc:Work>
    </rdf:RDF>
  </metadata>
  <defs
     id="defs8" />
  <g
     id="text2"
     style="font-style:italic;font-size:20px;font-family:'Menoe Grotesque Pro';fill:#000000"
     aria-label="Q">
    <path
       id="path12"
       style="font-style:italic;font-size:20px;font-family:'Menoe Grotesque Pro';fill:#000000"
       d="M 16.22,13.7 C 16.88,9.56 15.18,6.8 12,6.8 c -2.98,0 -5.34,2.58 -5.96,6.5 -0.66,4.12 1.02,6.9 4.24,6.9 0.42,0 0.84,-0.06 1.24,-0.16 l 0.98,2.28 h 1.82 L 12.98,19.38 C 14.6,18.34 15.8,16.3 16.22,13.7 Z m -5.9,4.98 c -2.1,0 -3.16,-2.08 -2.66,-5.16 0.5,-3.12 2.22,-5.2 4.3,-5.2 2.08,0 3.16,2.08 2.64,5.2 -0.46,3.08 -2.22,5.16 -4.28,5.16 z" />
  </g>
</svg>
