<?xml version="1.0" encoding="UTF-8" standalone="no"?>
<svg
   xmlns:dc="http://purl.org/dc/elements/1.1/"
   xmlns:cc="http://creativecommons.org/ns#"
   xmlns:rdf="http://www.w3.org/1999/02/22-rdf-syntax-ns#"
   xmlns:svg="http://www.w3.org/2000/svg"
   xmlns="http://www.w3.org/2000/svg"
   id="svg4"
   version="1.1"
   xml:space="default"
   font-size="0"
   preserveAspectRatio="xMidYMid"
   viewBox="0, 0, 20, 28"
   overflow="inherit"
   height="28"
   width="20"
   y="0"
   x="0">
  <metadata
     id="metadata10">
    <rdf:RDF>
      <cc:Work
         rdf:about="">
        <dc:format>image/svg+xml</dc:format>
        <dc:type
           rdf:resource="http://purl.org/dc/dcmitype/StillImage" />
      </cc:Work>
    </rdf:RDF>
  </metadata>
  <defs
     id="defs8" />
  <g
     id="text2"
     style="font-style:italic;font-size:20px;font-family:'Menoe Grotesque Pro';fill:#000000"
     aria-label="ะต">
    <path
       id="path12"
       style="font-style:italic;font-size:20px;font-family:'Menoe Grotesque Pro';fill:#000000"
       d="M 15.14,17.98 14.02,17.2 c -0.68,0.94 -1.9,1.48 -3.16,1.48 -1.58,0 -2.68,-0.98 -2.84,-2.42 5.82,-0.1 7.4,-1.36 7.78,-2.9 0.46,-1.88 -1.06,-3.16 -3.48,-3.16 -2.92,0 -5.36,2.06 -5.82,5 -0.46,2.96 1.36,5 4.28,5 1.78,0 3.34,-0.84 4.36,-2.22 z m -3.06,-6.2 c 1.38,0 2.18,0.48 1.96,1.36 -0.22,0.9 -1.36,1.7 -5.94,1.76 0.44,-1.86 1.94,-3.12 3.98,-3.12 z" />
  </g>
</svg>
