<?xml version="1.0" encoding="UTF-8" standalone="no"?>
<svg
   xmlns:dc="http://purl.org/dc/elements/1.1/"
   xmlns:cc="http://creativecommons.org/ns#"
   xmlns:rdf="http://www.w3.org/1999/02/22-rdf-syntax-ns#"
   xmlns:svg="http://www.w3.org/2000/svg"
   xmlns="http://www.w3.org/2000/svg"
   id="svg4"
   version="1.1"
   xml:space="default"
   font-size="0"
   preserveAspectRatio="xMidYMid"
   viewBox="0, 0, 20, 28"
   overflow="inherit"
   height="28"
   width="20"
   y="0"
   x="0">
  <metadata
     id="metadata10">
    <rdf:RDF>
      <cc:Work
         rdf:about="">
        <dc:format>image/svg+xml</dc:format>
        <dc:type
           rdf:resource="http://purl.org/dc/dcmitype/StillImage" />
      </cc:Work>
    </rdf:RDF>
  </metadata>
  <defs
     id="defs8" />
  <g
     id="text2"
     style="font-size:20px;font-family:'Menoe Grotesque Pro';fill:#000000"
     aria-label="m">
    <path
       id="path12"
       style="font-size:20px;font-family:'Menoe Grotesque Pro';fill:#000000"
       d="m 6.8,14.2 c 0,-1.6 0.56,-2.56 1.4,-2.56 0.62,0 1.06,0.48 1.06,1.44 V 20 h 1.48 v -5.8 c 0,-1.6 0.58,-2.56 1.44,-2.56 0.58,0 1.02,0.48 1.02,1.44 V 20 h 1.48 v -7.04 c 0,-1.68 -0.9,-2.76 -2.12,-2.76 -0.84,0 -1.58,0.5 -2.06,1.4 -0.34,-0.88 -1.06,-1.4 -1.92,-1.4 -0.7,0 -1.32,0.34 -1.8,0.98 C 6.8,10.92 6.8,10.68 6.8,10.4 H 5.3 c 0.02,1.44 0.02,3.12 0.02,4.8 0,1.68 0,3.36 -0.02,4.8 h 1.5 z" />
  </g>
</svg>
