<?xml version="1.0" encoding="UTF-8" standalone="no"?>
<svg
   xmlns:dc="http://purl.org/dc/elements/1.1/"
   xmlns:cc="http://creativecommons.org/ns#"
   xmlns:rdf="http://www.w3.org/1999/02/22-rdf-syntax-ns#"
   xmlns:svg="http://www.w3.org/2000/svg"
   xmlns="http://www.w3.org/2000/svg"
   id="svg4"
   version="1.1"
   xml:space="default"
   font-size="0"
   preserveAspectRatio="xMidYMid"
   viewBox="0, 0, 20, 28"
   overflow="inherit"
   height="28"
   width="20"
   y="0"
   x="0">
  <metadata
     id="metadata10">
    <rdf:RDF>
      <cc:Work
         rdf:about="">
        <dc:format>image/svg+xml</dc:format>
        <dc:type
           rdf:resource="http://purl.org/dc/dcmitype/StillImage" />
      </cc:Work>
    </rdf:RDF>
  </metadata>
  <defs
     id="defs8" />
  <g
     id="text2"
     style="font-size:20px;font-family:'Menoe Grotesque Pro';fill:#000000"
     aria-label="ю">
    <path
       id="path12"
       style="font-size:20px;font-family:'Menoe Grotesque Pro';fill:#000000"
       d="m 14.78,15.2 c 0,-3.34 -1.34,-5 -3.1,-5 -1.56,0 -2.82,1.34 -3.04,4.06 H 6.78 V 10.4 H 5.3 V 20 h 1.48 v -4.26 h 1.84 c 0.14,3 1.42,4.46 3.06,4.46 1.76,0 3.1,-1.64 3.1,-5 z m -3.08,3.42 c -0.82,0 -1.46,-1.04 -1.46,-3.42 0,-2.38 0.64,-3.42 1.46,-3.42 0.82,0 1.44,1.04 1.44,3.42 0,2.38 -0.62,3.42 -1.44,3.42 z" />
  </g>
</svg>
