<?xml version="1.0" encoding="UTF-8" standalone="no"?>
<svg
   xmlns:dc="http://purl.org/dc/elements/1.1/"
   xmlns:cc="http://creativecommons.org/ns#"
   xmlns:rdf="http://www.w3.org/1999/02/22-rdf-syntax-ns#"
   xmlns:svg="http://www.w3.org/2000/svg"
   xmlns="http://www.w3.org/2000/svg"
   id="svg4"
   version="1.1"
   xml:space="default"
   font-size="0"
   preserveAspectRatio="xMidYMid"
   viewBox="0, 0, 20, 28"
   overflow="inherit"
   height="28"
   width="20"
   y="0"
   x="0">
  <metadata
     id="metadata10">
    <rdf:RDF>
      <cc:Work
         rdf:about="">
        <dc:format>image/svg+xml</dc:format>
        <dc:type
           rdf:resource="http://purl.org/dc/dcmitype/StillImage" />
      </cc:Work>
    </rdf:RDF>
  </metadata>
  <defs
     id="defs8" />
  <g
     id="text2"
     style="font-size:20px;font-family:'Menoe Grotesque Pro';fill:#000000"
     aria-label="б">
    <path
       id="path12"
       style="font-size:20px;font-family:'Menoe Grotesque Pro';fill:#000000"
       d="m 14.78,15.34 c 0,-2.96 -2.04,-4.9 -4.64,-4.9 -1.64,0 -2.76,0.76 -3.38,1.78 0.26,-2.86 1.52,-3.7 4.26,-3.8 1.38,-0.06 2.24,0.02 3.2,-0.46 V 6.4 c -0.86,0.5 -2.06,0.46 -3.2,0.5 -3.28,0.12 -5.84,1.26 -5.84,7.52 0,3.92 2.04,5.78 4.94,5.78 2.76,0 4.66,-2.22 4.66,-4.86 z m -4.8,3.28 c -1.8,0 -3.14,-1.4 -3.14,-3.32 0,-1.92 1.34,-3.32 3.16,-3.32 1.8,0 3.14,1.4 3.14,3.32 0,1.92 -1.34,3.32 -3.16,3.32 z" />
  </g>
</svg>
