<?xml version="1.0" encoding="UTF-8" standalone="no"?>
<svg
   xmlns:dc="http://purl.org/dc/elements/1.1/"
   xmlns:cc="http://creativecommons.org/ns#"
   xmlns:rdf="http://www.w3.org/1999/02/22-rdf-syntax-ns#"
   xmlns:svg="http://www.w3.org/2000/svg"
   xmlns="http://www.w3.org/2000/svg"
   id="svg4"
   version="1.1"
   xml:space="default"
   font-size="0"
   preserveAspectRatio="xMidYMid"
   viewBox="0, 0, 20, 28"
   overflow="inherit"
   height="28"
   width="20"
   y="0"
   x="0">
  <metadata
     id="metadata10">
    <rdf:RDF>
      <cc:Work
         rdf:about="">
        <dc:format>image/svg+xml</dc:format>
        <dc:type
           rdf:resource="http://purl.org/dc/dcmitype/StillImage" />
      </cc:Work>
    </rdf:RDF>
  </metadata>
  <defs
     id="defs8" />
  <g
     id="text2"
     style="font-style:italic;font-size:20px;font-family:'Menoe Grotesque Pro';fill:#000000"
     aria-label="Ф">
    <path
       id="path12"
       style="font-style:italic;font-size:20px;font-family:'Menoe Grotesque Pro';fill:#000000"
       d="m 16.1,13.56 c 0.42,-2.6 -0.98,-4.42 -3.54,-4.8 L 12.88,6.8 H 11.3 L 11,8.72 C 8.3,8.94 6.34,10.7 5.92,13.28 5.5,15.96 6.88,17.86 9.48,18.24 L 9.16,20.2 h 1.58 l 0.3,-1.92 c 2.66,-0.24 4.64,-2.08 5.06,-4.72 z m -1.58,-0.14 c -0.28,1.76 -1.54,3.02 -3.22,3.32 l 1.02,-6.48 c 1.6,0.28 2.48,1.48 2.2,3.16 z m -6.98,0 c 0.28,-1.68 1.5,-2.86 3.2,-3.16 l -1.02,6.46 c -1.6,-0.3 -2.46,-1.54 -2.18,-3.3 z" />
  </g>
</svg>
