<?xml version="1.0" encoding="UTF-8" standalone="no"?>
<svg
   xmlns:dc="http://purl.org/dc/elements/1.1/"
   xmlns:cc="http://creativecommons.org/ns#"
   xmlns:rdf="http://www.w3.org/1999/02/22-rdf-syntax-ns#"
   xmlns:svg="http://www.w3.org/2000/svg"
   xmlns="http://www.w3.org/2000/svg"
   id="svg4"
   version="1.1"
   xml:space="default"
   font-size="0"
   preserveAspectRatio="xMidYMid"
   viewBox="0, 0, 20, 28"
   overflow="inherit"
   height="28"
   width="20"
   y="0"
   x="0">
  <metadata
     id="metadata10">
    <rdf:RDF>
      <cc:Work
         rdf:about="">
        <dc:format>image/svg+xml</dc:format>
        <dc:type
           rdf:resource="http://purl.org/dc/dcmitype/StillImage" />
      </cc:Work>
    </rdf:RDF>
  </metadata>
  <defs
     id="defs8" />
  <g
     id="text2"
     style="font-style:italic;font-size:20px;font-family:'Menoe Grotesque Pro';fill:#000000"
     aria-label="q">
    <path
       id="path12"
       style="font-style:italic;font-size:20px;font-family:'Menoe Grotesque Pro';fill:#000000"
       d="m 15.32,10.4 h -1.56 c -0.08,0.44 -0.14,0.9 -0.18,1.34 -0.62,-1 -1.68,-1.54 -2.94,-1.54 -2.1,0 -4.08,1.86 -4.58,5 -0.5,3.16 1.04,5 3.4,5 1.08,0 2.16,-0.48 3,-1.4 -0.06,0.32 -0.16,0.8 -0.22,1.2 l -0.6,3.8 h 1.56 z m -4.34,1.24 c 1.5,0 2.56,1.4 2.2,3.56 -0.34,2.16 -1.82,3.56 -3.32,3.56 -1.5,0 -2.54,-1.4 -2.2,-3.56 0.34,-2.16 1.82,-3.56 3.32,-3.56 z" />
  </g>
</svg>
