<?xml version="1.0" encoding="UTF-8" standalone="no"?>
<svg
   xmlns:dc="http://purl.org/dc/elements/1.1/"
   xmlns:cc="http://creativecommons.org/ns#"
   xmlns:rdf="http://www.w3.org/1999/02/22-rdf-syntax-ns#"
   xmlns:svg="http://www.w3.org/2000/svg"
   xmlns="http://www.w3.org/2000/svg"
   id="svg4"
   version="1.1"
   xml:space="default"
   font-size="0"
   preserveAspectRatio="xMidYMid"
   viewBox="0, 0, 20, 28"
   overflow="inherit"
   height="28"
   width="20"
   y="0"
   x="0">
  <metadata
     id="metadata10">
    <rdf:RDF>
      <cc:Work
         rdf:about="">
        <dc:format>image/svg+xml</dc:format>
        <dc:type
           rdf:resource="http://purl.org/dc/dcmitype/StillImage" />
      </cc:Work>
    </rdf:RDF>
  </metadata>
  <defs
     id="defs8" />
  <g
     id="text2"
     style="font-style:italic;font-size:20px;font-family:'Menoe Grotesque Pro';fill:#000000"
     aria-label="З">
    <path
       id="path12"
       style="font-style:italic;font-size:20px;font-family:'Menoe Grotesque Pro';fill:#000000"
       d="m 15.08,16.64 c 0.24,-1.5 -0.44,-2.76 -1.82,-3.32 1.2,-0.54 2.02,-1.58 2.22,-2.88 C 15.8,8.3 14.56,6.8 11.82,6.8 9.9,6.8 8.56,7.7 7.76,8.64 l 0.9,1.12 C 9.4,8.82 10.4,8.32 11.7,8.32 c 1.54,0 2.36,0.9 2.16,2.18 -0.22,1.38 -1.28,2.18 -2.86,2.18 H 9.34 l -0.22,1.36 h 1.72 c 1.82,0 2.9,0.7 2.64,2.26 -0.26,1.68 -1.82,2.36 -3.2,2.36 -1.52,0 -2.54,-0.66 -3.02,-1.78 l -1.5,1 c 0.62,1.38 2.06,2.32 4.28,2.32 2.7,0 4.66,-1.22 5.04,-3.56 z" />
  </g>
</svg>
