<?xml version="1.0" encoding="UTF-8" standalone="no"?>
<svg
   xmlns:dc="http://purl.org/dc/elements/1.1/"
   xmlns:cc="http://creativecommons.org/ns#"
   xmlns:rdf="http://www.w3.org/1999/02/22-rdf-syntax-ns#"
   xmlns:svg="http://www.w3.org/2000/svg"
   xmlns="http://www.w3.org/2000/svg"
   id="svg4"
   version="1.1"
   xml:space="default"
   font-size="0"
   preserveAspectRatio="xMidYMid"
   viewBox="0, 0, 20, 28"
   overflow="inherit"
   height="28"
   width="20"
   y="0"
   x="0">
  <metadata
     id="metadata10">
    <rdf:RDF>
      <cc:Work
         rdf:about="">
        <dc:format>image/svg+xml</dc:format>
        <dc:type
           rdf:resource="http://purl.org/dc/dcmitype/StillImage" />
      </cc:Work>
    </rdf:RDF>
  </metadata>
  <defs
     id="defs8" />
  <g
     id="text2"
     style="font-size:20px;font-family:'Menoe Grotesque Pro';fill:#000000"
     aria-label="Ð">
    <path
       id="path12"
       style="font-size:20px;font-family:'Menoe Grotesque Pro';fill:#000000"
       d="m 7.54,5.54 c 0.74,0 1.32,-0.6 1.32,-1.32 0,-0.74 -0.58,-1.32 -1.32,-1.32 -0.72,0 -1.3,0.58 -1.3,1.32 0,0.72 0.58,1.32 1.3,1.32 z m 5.7,0 c 0.74,0 1.32,-0.6 1.32,-1.32 0,-0.74 -0.58,-1.32 -1.32,-1.32 -0.72,0 -1.3,0.58 -1.3,1.32 0,0.72 0.58,1.32 1.3,1.32 z M 6.44,20 h 8.1 V 18.52 H 8.04 V 13.9 h 4.98 V 12.42 H 8.04 V 8.48 h 6.42 V 7 H 6.44 Z" />
  </g>
</svg>
