<?xml version="1.0" encoding="UTF-8" standalone="no"?>
<svg
   xmlns:dc="http://purl.org/dc/elements/1.1/"
   xmlns:cc="http://creativecommons.org/ns#"
   xmlns:rdf="http://www.w3.org/1999/02/22-rdf-syntax-ns#"
   xmlns:svg="http://www.w3.org/2000/svg"
   xmlns="http://www.w3.org/2000/svg"
   id="svg4"
   version="1.1"
   xml:space="default"
   font-size="0"
   preserveAspectRatio="xMidYMid"
   viewBox="0, 0, 20, 28"
   overflow="inherit"
   height="28"
   width="20"
   y="0"
   x="0">
  <metadata
     id="metadata10">
    <rdf:RDF>
      <cc:Work
         rdf:about="">
        <dc:format>image/svg+xml</dc:format>
        <dc:type
           rdf:resource="http://purl.org/dc/dcmitype/StillImage" />
      </cc:Work>
    </rdf:RDF>
  </metadata>
  <defs
     id="defs8" />
  <g
     id="text2"
     style="font-style:italic;font-size:20px;font-family:'Menoe Grotesque Pro';fill:#000000"
     aria-label="s">
    <path
       id="path12"
       style="font-style:italic;font-size:20px;font-family:'Menoe Grotesque Pro';fill:#000000"
       d="m 15.5,11.48 c -1.1,-0.84 -2.66,-1.28 -4.16,-1.28 -1.84,0 -3.54,0.64 -3.86,2.44 -0.3,1.72 0.78,2.64 2.54,3.12 2.4,0.66 3.16,0.78 3,1.86 -0.12,0.68 -1,1.1 -2.32,1.1 -1.34,0 -2.58,-0.46 -3.34,-1.2 l -1.4,1.18 c 0.92,0.94 2.5,1.5 4.64,1.5 2.26,0 3.86,-0.9 4.12,-2.54 0.3,-1.94 -1.04,-2.62 -2.94,-3.12 -1.94,-0.52 -2.88,-0.66 -2.66,-1.8 0.12,-0.62 0.76,-1.06 1.98,-1.06 1.26,0 2.48,0.38 3.26,1.04 z" />
  </g>
</svg>
