<?xml version="1.0" encoding="UTF-8" standalone="no"?>
<svg
   xmlns:dc="http://purl.org/dc/elements/1.1/"
   xmlns:cc="http://creativecommons.org/ns#"
   xmlns:rdf="http://www.w3.org/1999/02/22-rdf-syntax-ns#"
   xmlns:svg="http://www.w3.org/2000/svg"
   xmlns="http://www.w3.org/2000/svg"
   id="svg4"
   version="1.1"
   xml:space="default"
   font-size="0"
   preserveAspectRatio="xMidYMid"
   viewBox="0, 0, 20, 28"
   overflow="inherit"
   height="28"
   width="20"
   y="0"
   x="0">
  <metadata
     id="metadata10">
    <rdf:RDF>
      <cc:Work
         rdf:about="">
        <dc:format>image/svg+xml</dc:format>
        <dc:type
           rdf:resource="http://purl.org/dc/dcmitype/StillImage" />
      </cc:Work>
    </rdf:RDF>
  </metadata>
  <defs
     id="defs8" />
  <g
     id="text2"
     style="font-size:20px;font-family:'Menoe Grotesque Pro';fill:#000000"
     aria-label="d">
    <path
       id="path12"
       style="font-size:20px;font-family:'Menoe Grotesque Pro';fill:#000000"
       d="m 12.24,20 h 1.6 c -0.02,-2 -0.02,-4.36 -0.02,-6.7 0,-2.36 0,-4.7 0.02,-6.7 h -1.6 v 3.8 c 0,0.44 0.02,0.98 0.04,1.3 -0.76,-0.98 -1.84,-1.5 -3.04,-1.5 -2.26,0 -4.08,1.86 -4.08,5 0,3.16 1.82,5 4.08,5 1.2,0 2.28,-0.52 3.04,-1.48 -0.04,0.42 -0.04,0.84 -0.04,1.28 z M 9.62,11.64 c 1.52,0 2.82,1.4 2.82,3.56 0,2.16 -1.3,3.56 -2.82,3.56 -1.54,0 -2.82,-1.4 -2.82,-3.56 0,-2.16 1.28,-3.56 2.82,-3.56 z" />
  </g>
</svg>
