<?xml version="1.0" encoding="UTF-8" standalone="no"?>
<svg
   xmlns:dc="http://purl.org/dc/elements/1.1/"
   xmlns:cc="http://creativecommons.org/ns#"
   xmlns:rdf="http://www.w3.org/1999/02/22-rdf-syntax-ns#"
   xmlns:svg="http://www.w3.org/2000/svg"
   xmlns="http://www.w3.org/2000/svg"
   id="svg4"
   version="1.1"
   xml:space="default"
   font-size="0"
   preserveAspectRatio="xMidYMid"
   viewBox="0, 0, 20, 28"
   overflow="inherit"
   height="28"
   width="20"
   y="0"
   x="0">
  <metadata
     id="metadata10">
    <rdf:RDF>
      <cc:Work
         rdf:about="">
        <dc:format>image/svg+xml</dc:format>
        <dc:type
           rdf:resource="http://purl.org/dc/dcmitype/StillImage" />
      </cc:Work>
    </rdf:RDF>
  </metadata>
  <defs
     id="defs8" />
  <g
     id="text2"
     style="font-size:20px;font-family:'Menoe Grotesque Pro';fill:#000000"
     aria-label="S">
    <path
       id="path12"
       style="font-size:20px;font-family:'Menoe Grotesque Pro';fill:#000000"
       d="m 5.04,18.78 c 1.3,1.08 3.18,1.42 4.94,1.42 2.66,0 5,-1.06 5,-3.9 0,-2.32 -2.56,-3.06 -4.8,-3.7 C 8.16,12.02 7.02,11.64 7.02,10.26 7.02,8.88 8.2,8.2 9.92,8.2 c 1.24,0 2.42,0.34 3.46,1.16 L 14.36,8.14 C 12.88,7 11.44,6.78 10.12,6.78 7.56,6.78 5.44,8 5.44,10.38 c 0,2.1 1.42,2.88 4.04,3.64 2.62,0.76 3.82,1.12 3.82,2.48 0,1.34 -1.22,2.16 -3.06,2.16 -1.64,0 -3.12,-0.4 -4.08,-1.24 z" />
  </g>
</svg>
