<?xml version="1.0" encoding="UTF-8" standalone="no"?>
<svg
   xmlns:dc="http://purl.org/dc/elements/1.1/"
   xmlns:cc="http://creativecommons.org/ns#"
   xmlns:rdf="http://www.w3.org/1999/02/22-rdf-syntax-ns#"
   xmlns:svg="http://www.w3.org/2000/svg"
   xmlns="http://www.w3.org/2000/svg"
   id="svg4"
   version="1.1"
   xml:space="default"
   font-size="0"
   preserveAspectRatio="xMidYMid"
   viewBox="0, 0, 20, 28"
   overflow="inherit"
   height="28"
   width="20"
   y="0"
   x="0">
  <metadata
     id="metadata10">
    <rdf:RDF>
      <cc:Work
         rdf:about="">
        <dc:format>image/svg+xml</dc:format>
        <dc:type
           rdf:resource="http://purl.org/dc/dcmitype/StillImage" />
      </cc:Work>
    </rdf:RDF>
  </metadata>
  <defs
     id="defs8" />
  <g
     id="text2"
     style="font-style:italic;font-size:20px;font-family:'Menoe Grotesque Pro';fill:#000000"
     aria-label="t">
    <path
       id="path12"
       style="font-style:italic;font-size:20px;font-family:'Menoe Grotesque Pro';fill:#000000"
       d="m 14.64,16.76 c 0.14,-0.82 0.06,-1.7 -0.12,-2.26 l -1.5,0.4 c 0.16,0.66 0.14,1.28 0.06,1.82 -0.2,1.22 -1.08,1.9 -2.28,1.9 -1.22,0 -1.86,-0.74 -1.64,-2.08 L 9.9,11.88 h 5.6 L 15.72,10.4 H 10.14 L 10.62,7.38 9.02,7.6 8.58,10.4 H 6.56 L 6.32,11.88 H 8.34 L 7.6,16.6 c -0.34,2.16 0.7,3.6 3.16,3.6 2.02,0 3.56,-1.38 3.88,-3.44 z" />
  </g>
</svg>
