<?xml version="1.0" encoding="UTF-8" standalone="no"?>
<svg
   xmlns:dc="http://purl.org/dc/elements/1.1/"
   xmlns:cc="http://creativecommons.org/ns#"
   xmlns:rdf="http://www.w3.org/1999/02/22-rdf-syntax-ns#"
   xmlns:svg="http://www.w3.org/2000/svg"
   xmlns="http://www.w3.org/2000/svg"
   id="svg4"
   version="1.1"
   xml:space="default"
   font-size="0"
   preserveAspectRatio="xMidYMid"
   viewBox="0, 0, 20, 28"
   overflow="inherit"
   height="28"
   width="20"
   y="0"
   x="0">
  <metadata
     id="metadata10">
    <rdf:RDF>
      <cc:Work
         rdf:about="">
        <dc:format>image/svg+xml</dc:format>
        <dc:type
           rdf:resource="http://purl.org/dc/dcmitype/StillImage" />
      </cc:Work>
    </rdf:RDF>
  </metadata>
  <defs
     id="defs8" />
  <g
     id="text2"
     style="font-style:italic;font-size:20px;font-family:'Menoe Grotesque Pro';fill:#000000"
     aria-label="S">
    <path
       id="path12"
       style="font-style:italic;font-size:20px;font-family:'Menoe Grotesque Pro';fill:#000000"
       d="m 5.2,18.78 c 1.24,1.06 3.14,1.42 5.08,1.42 2.46,0 4.78,-0.92 5.18,-3.38 C 15.9,13.98 13.72,13.3 11.32,12.6 9.38,12.04 8.3,11.56 8.54,10.08 8.74,8.82 10.04,8.2 11.76,8.2 13,8.2 14.12,8.54 15.04,9.36 L 16.2,8.14 C 14.92,7.08 13.36,6.78 11.98,6.78 c -2.6,0 -4.7,1.06 -5.02,3.16 -0.38,2.34 0.92,3.32 3.44,4.08 2.5,0.76 3.64,1.14 3.4,2.66 -0.18,1.24 -1.56,1.98 -3.38,1.98 -1.64,0 -3.06,-0.4 -3.88,-1.24 z" />
  </g>
</svg>
