<?xml version="1.0" encoding="UTF-8" standalone="no"?>
<svg
   xmlns:dc="http://purl.org/dc/elements/1.1/"
   xmlns:cc="http://creativecommons.org/ns#"
   xmlns:rdf="http://www.w3.org/1999/02/22-rdf-syntax-ns#"
   xmlns:svg="http://www.w3.org/2000/svg"
   xmlns="http://www.w3.org/2000/svg"
   id="svg4"
   version="1.1"
   xml:space="default"
   font-size="0"
   preserveAspectRatio="xMidYMid"
   viewBox="0, 0, 20, 28"
   overflow="inherit"
   height="28"
   width="20"
   y="0"
   x="0">
  <metadata
     id="metadata10">
    <rdf:RDF>
      <cc:Work
         rdf:about="">
        <dc:format>image/svg+xml</dc:format>
        <dc:type
           rdf:resource="http://purl.org/dc/dcmitype/StillImage" />
      </cc:Work>
    </rdf:RDF>
  </metadata>
  <defs
     id="defs8" />
  <g
     id="text2"
     style="font-style:italic;font-size:20px;font-family:'Menoe Grotesque Pro';fill:#000000"
     aria-label="ю">
    <path
       id="path12"
       style="font-style:italic;font-size:20px;font-family:'Menoe Grotesque Pro';fill:#000000"
       d="m 15.42,15.4 c 0.48,-3.14 -0.5,-5.2 -2.42,-5.2 -1.54,0 -2.84,1.58 -3.4,4.06 H 7.74 L 8.36,10.4 H 6.9 L 5.38,20 h 1.46 l 0.68,-4.26 h 1.84 c -0.24,2.7 0.72,4.46 2.44,4.46 1.7,0 3.16,-1.92 3.62,-4.8 z m -3.54,3.22 c -0.86,0 -1.22,-1.36 -0.9,-3.42 0.32,-2.06 1.12,-3.42 1.98,-3.42 0.84,0 1.18,1.36 0.86,3.42 -0.32,2.06 -1.08,3.42 -1.94,3.42 z" />
  </g>
</svg>
