<?xml version="1.0" encoding="UTF-8" standalone="no"?>
<svg
   xmlns:dc="http://purl.org/dc/elements/1.1/"
   xmlns:cc="http://creativecommons.org/ns#"
   xmlns:rdf="http://www.w3.org/1999/02/22-rdf-syntax-ns#"
   xmlns:svg="http://www.w3.org/2000/svg"
   xmlns="http://www.w3.org/2000/svg"
   id="svg4"
   version="1.1"
   xml:space="default"
   font-size="0"
   preserveAspectRatio="xMidYMid"
   viewBox="0, 0, 20, 28"
   overflow="inherit"
   height="28"
   width="20"
   y="0"
   x="0">
  <metadata
     id="metadata10">
    <rdf:RDF>
      <cc:Work
         rdf:about="">
        <dc:format>image/svg+xml</dc:format>
        <dc:type
           rdf:resource="http://purl.org/dc/dcmitype/StillImage" />
      </cc:Work>
    </rdf:RDF>
  </metadata>
  <defs
     id="defs8" />
  <g
     id="text2"
     style="font-style:italic;font-size:20px;font-family:'Menoe Grotesque Pro';fill:#000000"
     aria-label="ли">
    <path
       id="path12"
       style="font-style:italic;font-size:20px;font-family:'Menoe Grotesque Pro';fill:#000000"
       d="m 14.7,17.44 c 0.2,-1.18 -0.34,-2.08 -1.36,-2.46 0.8,-0.36 1.34,-1.04 1.48,-1.94 0.26,-1.7 -1.08,-2.84 -3.38,-2.84 -1.4,0 -3.06,0.72 -4.06,1.88 l 0.84,1.08 c 0.7,-0.88 1.9,-1.44 2.96,-1.44 1.34,0 2.14,0.54 2.02,1.38 -0.14,0.78 -0.82,1.3 -1.74,1.3 h -2.1 l -0.2,1.36 h 2.18 c 1.2,0 1.9,0.56 1.76,1.42 -0.14,0.9 -1.26,1.48 -2.82,1.48 -1.4,0 -2.6,-0.7 -3.02,-1.74 l -1.4,0.96 c 0.6,1.4 2.34,2.32 4.38,2.32 2.44,0 4.2,-1.1 4.46,-2.76 z" />
  </g>
</svg>
