<?xml version="1.0" encoding="UTF-8" standalone="no"?>
<svg
   xmlns:dc="http://purl.org/dc/elements/1.1/"
   xmlns:cc="http://creativecommons.org/ns#"
   xmlns:rdf="http://www.w3.org/1999/02/22-rdf-syntax-ns#"
   xmlns:svg="http://www.w3.org/2000/svg"
   xmlns="http://www.w3.org/2000/svg"
   id="svg4"
   version="1.1"
   xml:space="default"
   font-size="0"
   preserveAspectRatio="xMidYMid"
   viewBox="0, 0, 20, 28"
   overflow="inherit"
   height="28"
   width="20"
   y="0"
   x="0">
  <metadata
     id="metadata10">
    <rdf:RDF>
      <cc:Work
         rdf:about="">
        <dc:format>image/svg+xml</dc:format>
        <dc:type
           rdf:resource="http://purl.org/dc/dcmitype/StillImage" />
      </cc:Work>
    </rdf:RDF>
  </metadata>
  <defs
     id="defs8" />
  <g
     id="text2"
     style="font-size:20px;font-family:'Menoe Grotesque Pro';fill:#000000"
     aria-label="Э">
    <path
       id="path12"
       style="font-size:20px;font-family:'Menoe Grotesque Pro';fill:#000000"
       d="m 14.86,13.56 c 0,-4.06 -2.08,-6.78 -5.22,-6.78 -2.36,0 -4.2,1.52 -4.88,3.98 l 1.4,0.94 C 6.54,9.62 7.9,8.3 9.64,8.3 c 1.96,0 3.36,1.76 3.58,4.44 h -5.8 v 1.48 h 5.82 c -0.2,2.7 -1.6,4.44 -3.6,4.44 -1.82,0 -3.22,-1.46 -3.56,-3.78 L 4.6,15.56 c 0.58,2.84 2.5,4.62 5.04,4.62 3.14,0 5.22,-2.64 5.22,-6.62 z" />
  </g>
</svg>
