<?xml version="1.0" encoding="UTF-8" standalone="no"?>
<svg
   xmlns:dc="http://purl.org/dc/elements/1.1/"
   xmlns:cc="http://creativecommons.org/ns#"
   xmlns:rdf="http://www.w3.org/1999/02/22-rdf-syntax-ns#"
   xmlns:svg="http://www.w3.org/2000/svg"
   xmlns="http://www.w3.org/2000/svg"
   id="svg4"
   version="1.1"
   xml:space="default"
   font-size="0"
   preserveAspectRatio="xMidYMid"
   viewBox="0, 0, 20, 28"
   overflow="inherit"
   height="28"
   width="20"
   y="0"
   x="0">
  <metadata
     id="metadata10">
    <rdf:RDF>
      <cc:Work
         rdf:about="">
        <dc:format>image/svg+xml</dc:format>
        <dc:type
           rdf:resource="http://purl.org/dc/dcmitype/StillImage" />
      </cc:Work>
    </rdf:RDF>
  </metadata>
  <defs
     id="defs8" />
  <g
     id="text2"
     style="font-style:italic;font-size:20px;font-family:'Menoe Grotesque Pro';fill:#000000"
     aria-label="В">
    <path
       id="path12"
       style="font-style:italic;font-size:20px;font-family:'Menoe Grotesque Pro';fill:#000000"
       d="m 6.58,20 h 5.1 c 2.02,0 3.68,-1.22 4.02,-3.44 0.26,-1.68 -0.64,-2.74 -1.78,-3.24 1.06,-0.54 2,-1.54 2.2,-2.96 C 16.46,8.34 15.12,7 13.28,7 H 8.64 Z M 12.96,8.38 c 1.08,0 1.72,0.78 1.52,1.94 -0.2,1.3 -1.28,2.36 -2.36,2.36 H 9.32 L 10,8.38 Z m -1.06,5.66 c 1.38,0 2.42,0.74 2.18,2.36 -0.28,1.7 -1.58,2.22 -2.74,2.22 H 8.38 L 9.1,14.04 Z" />
  </g>
</svg>
