<?xml version="1.0" encoding="UTF-8" standalone="no"?>
<svg
   xmlns:dc="http://purl.org/dc/elements/1.1/"
   xmlns:cc="http://creativecommons.org/ns#"
   xmlns:rdf="http://www.w3.org/1999/02/22-rdf-syntax-ns#"
   xmlns:svg="http://www.w3.org/2000/svg"
   xmlns="http://www.w3.org/2000/svg"
   id="svg4"
   version="1.1"
   xml:space="default"
   font-size="0"
   preserveAspectRatio="xMidYMid"
   viewBox="0, 0, 20, 28"
   overflow="inherit"
   height="28"
   width="20"
   y="0"
   x="0">
  <metadata
     id="metadata10">
    <rdf:RDF>
      <cc:Work
         rdf:about="">
        <dc:format>image/svg+xml</dc:format>
        <dc:type
           rdf:resource="http://purl.org/dc/dcmitype/StillImage" />
      </cc:Work>
    </rdf:RDF>
  </metadata>
  <defs
     id="defs8" />
  <g
     id="text2"
     style="font-style:italic;font-size:20px;font-family:'Menoe Grotesque Pro';fill:#000000"
     aria-label="j">
    <path
       id="path12"
       style="font-style:italic;font-size:20px;font-family:'Menoe Grotesque Pro';fill:#000000"
       d="m 14.64,8.96 c 0.96,0 1.74,-0.78 1.74,-1.74 0,-0.96 -0.78,-1.74 -1.74,-1.74 -0.96,0 -1.74,0.78 -1.74,1.74 0,0.96 0.78,1.74 1.74,1.74 z M 9.4,24 c 2.36,0 4.04,-1.46 4.38,-3.7 l 1.5,-9.9 H 8.54 L 8.3,11.88 h 5.18 l -1.28,8.26 c -0.22,1.42 -1.24,2.34 -2.76,2.34 -1.54,0 -2.18,-0.68 -2,-1.82 0.08,-0.52 0.32,-0.9 0.6,-1.2 L 6.92,18.7 C 6.2,19.42 5.9,20.38 5.9,21.16 5.9,23.14 7.56,24 9.4,24 Z" />
  </g>
</svg>
