<?xml version="1.0" encoding="UTF-8" standalone="no"?>
<svg
   xmlns:dc="http://purl.org/dc/elements/1.1/"
   xmlns:cc="http://creativecommons.org/ns#"
   xmlns:rdf="http://www.w3.org/1999/02/22-rdf-syntax-ns#"
   xmlns:svg="http://www.w3.org/2000/svg"
   xmlns="http://www.w3.org/2000/svg"
   id="svg4"
   version="1.1"
   xml:space="default"
   font-size="0"
   preserveAspectRatio="xMidYMid"
   viewBox="0, 0, 20, 28"
   overflow="inherit"
   height="28"
   width="20"
   y="0"
   x="0">
  <metadata
     id="metadata10">
    <rdf:RDF>
      <cc:Work
         rdf:about="">
        <dc:format>image/svg+xml</dc:format>
        <dc:type
           rdf:resource="http://purl.org/dc/dcmitype/StillImage" />
      </cc:Work>
    </rdf:RDF>
  </metadata>
  <defs
     id="defs8" />
  <g
     id="text2"
     style="font-size:20px;font-family:'Menoe Grotesque Pro';fill:#000000"
     aria-label="в">
    <path
       id="path12"
       style="font-size:20px;font-family:'Menoe Grotesque Pro';fill:#000000"
       d="m 11.78,20 c 1.82,0 3.14,-0.98 3.14,-2.8 0,-1.26 -0.8,-1.94 -1.94,-2.18 0.76,-0.36 1.38,-1.12 1.38,-2.2 0,-1.5 -1.2,-2.42 -2.64,-2.42 H 6.06 V 20 Z M 11.4,11.78 c 0.76,0 1.3,0.44 1.3,1.28 0,0.74 -0.5,1.34 -1.32,1.34 H 7.66 v -2.62 z m 0.24,3.98 c 1.04,0 1.62,0.54 1.62,1.42 0,1.08 -0.94,1.44 -1.84,1.44 H 7.66 v -2.86 z" />
  </g>
</svg>
