<?xml version="1.0" encoding="UTF-8" standalone="no"?>
<svg
   xmlns:dc="http://purl.org/dc/elements/1.1/"
   xmlns:cc="http://creativecommons.org/ns#"
   xmlns:rdf="http://www.w3.org/1999/02/22-rdf-syntax-ns#"
   xmlns:svg="http://www.w3.org/2000/svg"
   xmlns="http://www.w3.org/2000/svg"
   id="svg4"
   version="1.1"
   xml:space="default"
   font-size="0"
   preserveAspectRatio="xMidYMid"
   viewBox="0, 0, 20, 28"
   overflow="inherit"
   height="28"
   width="20"
   y="0"
   x="0">
  <metadata
     id="metadata10">
    <rdf:RDF>
      <cc:Work
         rdf:about="">
        <dc:format>image/svg+xml</dc:format>
        <dc:type
           rdf:resource="http://purl.org/dc/dcmitype/StillImage" />
      </cc:Work>
    </rdf:RDF>
  </metadata>
  <defs
     id="defs8" />
  <g
     id="text2"
     style="font-size:20px;font-family:'Menoe Grotesque Pro';fill:#000000"
     aria-label="G">
    <path
       id="path12"
       style="font-size:20px;font-family:'Menoe Grotesque Pro';fill:#000000"
       d="m 10.86,13.7 v 1.48 h 2.58 v 3.16 c -0.72,0.32 -1.46,0.34 -2.14,0.34 -3,0 -4.66,-1.98 -4.66,-5.26 0,-3.06 1.42,-5.1 4.08,-5.1 1.18,0 2.48,0.58 3.24,1.44 l 1.02,-1.1 C 13.94,7.5 12.58,6.8 10.6,6.8 c -3.56,0 -5.62,2.64 -5.62,6.62 0,4.06 2.06,6.78 5.68,6.78 1.38,0 2.76,-0.12 4.38,-1.06 V 13.7 Z" />
  </g>
</svg>
