<?xml version="1.0" encoding="UTF-8" standalone="no"?>
<svg
   xmlns:dc="http://purl.org/dc/elements/1.1/"
   xmlns:cc="http://creativecommons.org/ns#"
   xmlns:rdf="http://www.w3.org/1999/02/22-rdf-syntax-ns#"
   xmlns:svg="http://www.w3.org/2000/svg"
   xmlns="http://www.w3.org/2000/svg"
   id="svg4"
   version="1.1"
   xml:space="default"
   font-size="0"
   preserveAspectRatio="xMidYMid"
   viewBox="0, 0, 20, 28"
   overflow="inherit"
   height="28"
   width="20"
   y="0"
   x="0">
  <metadata
     id="metadata10">
    <rdf:RDF>
      <cc:Work
         rdf:about="">
        <dc:format>image/svg+xml</dc:format>
        <dc:type
           rdf:resource="http://purl.org/dc/dcmitype/StillImage" />
      </cc:Work>
    </rdf:RDF>
  </metadata>
  <defs
     id="defs8" />
  <g
     id="text2"
     style="font-size:20px;font-family:'Menoe Grotesque Pro';fill:#000000"
     aria-label="З">
    <path
       id="path12"
       style="font-size:20px;font-family:'Menoe Grotesque Pro';fill:#000000"
       d="m 14.16,16.38 c 0,-1.42 -0.9,-2.56 -2.34,-3.08 1.2,-0.58 1.88,-1.76 1.88,-3.04 C 13.7,8.3 12.22,6.8 9.7,6.8 7.82,6.8 6.34,7.56 5.58,8.68 l 1.04,1.08 c 0.6,-0.94 1.54,-1.44 2.86,-1.44 1.58,0 2.56,0.9 2.56,2.18 0,1.38 -0.94,2.18 -2.56,2.18 h -1.7 v 1.36 h 1.76 c 1.8,0 2.96,0.7 2.96,2.26 0,1.68 -1.42,2.36 -2.8,2.36 -1.72,0 -2.78,-0.64 -3.46,-1.78 l -1.38,1 c 0.86,1.38 2.32,2.32 4.64,2.32 2.82,0 4.66,-1.32 4.66,-3.82 z" />
  </g>
</svg>
