<?xml version="1.0" encoding="UTF-8" standalone="no"?>
<svg
   xmlns:dc="http://purl.org/dc/elements/1.1/"
   xmlns:cc="http://creativecommons.org/ns#"
   xmlns:rdf="http://www.w3.org/1999/02/22-rdf-syntax-ns#"
   xmlns:svg="http://www.w3.org/2000/svg"
   xmlns="http://www.w3.org/2000/svg"
   id="svg4"
   version="1.1"
   xml:space="default"
   font-size="0"
   preserveAspectRatio="xMidYMid"
   viewBox="0, 0, 20, 28"
   overflow="inherit"
   height="28"
   width="20"
   y="0"
   x="0">
  <metadata
     id="metadata10">
    <rdf:RDF>
      <cc:Work
         rdf:about="">
        <dc:format>image/svg+xml</dc:format>
        <dc:type
           rdf:resource="http://purl.org/dc/dcmitype/StillImage" />
      </cc:Work>
    </rdf:RDF>
  </metadata>
  <defs
     id="defs8" />
  <g
     id="text2"
     style="font-size:20px;font-family:'Menoe Grotesque Pro';fill:#000000"
     aria-label="ли">
    <path
       id="path12"
       style="font-size:20px;font-family:'Menoe Grotesque Pro';fill:#000000"
       d="m 14.42,17.2 c 0,-1.04 -0.7,-1.86 -1.78,-2.22 0.88,-0.46 1.38,-1.32 1.38,-2.06 0,-1.68 -1.58,-2.72 -3.84,-2.72 -1.66,0 -3.02,0.62 -3.92,1.88 l 1.04,1.08 c 0.58,-0.94 1.56,-1.44 2.84,-1.44 1.28,0 2.22,0.5 2.22,1.38 0,0.82 -0.64,1.3 -1.66,1.3 H 8.56 v 1.36 h 2.24 c 1.26,0 1.96,0.5 1.96,1.38 0,0.96 -0.84,1.52 -2.58,1.52 -1.52,0 -2.52,-0.46 -3.26,-1.74 l -1.28,0.96 c 1.06,1.74 2.66,2.32 4.54,2.32 2.44,0 4.24,-1.04 4.24,-3 z" />
  </g>
</svg>
