<?xml version="1.0" encoding="UTF-8" standalone="no"?>
<svg
   xmlns:dc="http://purl.org/dc/elements/1.1/"
   xmlns:cc="http://creativecommons.org/ns#"
   xmlns:rdf="http://www.w3.org/1999/02/22-rdf-syntax-ns#"
   xmlns:svg="http://www.w3.org/2000/svg"
   xmlns="http://www.w3.org/2000/svg"
   id="svg4"
   version="1.1"
   xml:space="default"
   font-size="0"
   preserveAspectRatio="xMidYMid"
   viewBox="0, 0, 20, 28"
   overflow="inherit"
   height="28"
   width="20"
   y="0"
   x="0">
  <metadata
     id="metadata10">
    <rdf:RDF>
      <cc:Work
         rdf:about="">
        <dc:format>image/svg+xml</dc:format>
        <dc:type
           rdf:resource="http://purl.org/dc/dcmitype/StillImage" />
      </cc:Work>
    </rdf:RDF>
  </metadata>
  <defs
     id="defs8" />
  <g
     id="text2"
     style="font-style:italic;font-size:20px;font-family:'Menoe Grotesque Pro';fill:#000000"
     aria-label="i">
    <path
       id="path12"
       style="font-style:italic;font-size:20px;font-family:'Menoe Grotesque Pro';fill:#000000"
       d="m 10.82,8.96 c 0.96,0 1.74,-0.78 1.74,-1.74 0,-0.96 -0.78,-1.74 -1.74,-1.74 -0.96,0 -1.74,0.78 -1.74,1.74 0,0.96 0.78,1.74 1.74,1.74 z m 0.82,11.24 c 1.7,0 3.14,-1.22 3.38,-2.9 0.1,-0.62 0.08,-1.46 -0.1,-1.96 l -1.5,0.4 c 0.08,0.36 0.1,0.94 0.04,1.38 -0.14,0.86 -0.7,1.5 -1.68,1.5 -1.22,0 -1.8,-1 -1.58,-2.38 L 11.12,10.4 H 6.3 L 6.06,11.88 H 9.32 L 8.58,16.6 c -0.32,2.08 0.94,3.6 3.06,3.6 z" />
  </g>
</svg>
