<?xml version="1.0" encoding="UTF-8" standalone="no"?>
<svg
   xmlns:dc="http://purl.org/dc/elements/1.1/"
   xmlns:cc="http://creativecommons.org/ns#"
   xmlns:rdf="http://www.w3.org/1999/02/22-rdf-syntax-ns#"
   xmlns:svg="http://www.w3.org/2000/svg"
   xmlns="http://www.w3.org/2000/svg"
   id="svg4"
   version="1.1"
   xml:space="default"
   font-size="0"
   preserveAspectRatio="xMidYMid"
   viewBox="0, 0, 20, 28"
   overflow="inherit"
   height="28"
   width="20"
   y="0"
   x="0">
  <metadata
     id="metadata10">
    <rdf:RDF>
      <cc:Work
         rdf:about="">
        <dc:format>image/svg+xml</dc:format>
        <dc:type
           rdf:resource="http://purl.org/dc/dcmitype/StillImage" />
      </cc:Work>
    </rdf:RDF>
  </metadata>
  <defs
     id="defs8" />
  <g
     id="text2"
     style="font-style:italic;font-size:20px;font-family:'Menoe Grotesque Pro';fill:#000000"
     aria-label="ь">
    <path
       id="path12"
       style="font-style:italic;font-size:20px;font-family:'Menoe Grotesque Pro';fill:#000000"
       d="m 15.08,17.02 c 0.34,-2.26 -1.28,-3.46 -3.6,-3.46 -0.84,0 -1.58,0.16 -2.4,0.4 L 9.64,10.4 H 8.06 L 7.3,15.24 c -0.48,3.1 1,4.96 3.66,4.96 2.02,0 3.8,-1.12 4.12,-3.18 z m -3.76,-2.08 c 1.48,0 2.28,0.9 2.1,2.08 -0.18,1.14 -1.1,1.74 -2.34,1.74 -1.74,0 -2.54,-1.38 -2.22,-3.42 0.74,-0.26 1.48,-0.4 2.46,-0.4 z" />
  </g>
</svg>
