<?xml version="1.0" encoding="UTF-8" standalone="no"?>
<svg
   xmlns:dc="http://purl.org/dc/elements/1.1/"
   xmlns:cc="http://creativecommons.org/ns#"
   xmlns:rdf="http://www.w3.org/1999/02/22-rdf-syntax-ns#"
   xmlns:svg="http://www.w3.org/2000/svg"
   xmlns="http://www.w3.org/2000/svg"
   id="svg4"
   version="1.1"
   xml:space="default"
   font-size="0"
   preserveAspectRatio="xMidYMid"
   viewBox="0, 0, 20, 28"
   overflow="inherit"
   height="28"
   width="20"
   y="0"
   x="0">
  <metadata
     id="metadata10">
    <rdf:RDF>
      <cc:Work
         rdf:about="">
        <dc:format>image/svg+xml</dc:format>
        <dc:type
           rdf:resource="http://purl.org/dc/dcmitype/StillImage" />
      </cc:Work>
    </rdf:RDF>
  </metadata>
  <defs
     id="defs8" />
  <g
     id="text2"
     style="font-size:20px;font-family:'Menoe Grotesque Pro';fill:#000000"
     aria-label="Ф">
    <path
       id="path12"
       style="font-size:20px;font-family:'Menoe Grotesque Pro';fill:#000000"
       d="m 15.22,13.42 c 0,-2.58 -1.74,-4.38 -4.42,-4.68 V 6.8 H 9.2 v 1.94 c -2.68,0.3 -4.42,2.08 -4.42,4.68 0,2.66 1.74,4.52 4.42,4.84 v 1.94 h 1.6 v -1.94 c 2.68,-0.32 4.42,-2.18 4.42,-4.84 z m -8.78,0 c 0,-1.68 1.08,-2.88 2.76,-3.16 v 6.48 C 7.52,16.44 6.44,15.18 6.44,13.42 Z m 7.12,0 c 0,1.76 -1.08,3.02 -2.76,3.32 v -6.48 c 1.68,0.28 2.76,1.48 2.76,3.16 z" />
  </g>
</svg>
