<?xml version="1.0" encoding="UTF-8" standalone="no"?>
<svg
   xmlns:dc="http://purl.org/dc/elements/1.1/"
   xmlns:cc="http://creativecommons.org/ns#"
   xmlns:rdf="http://www.w3.org/1999/02/22-rdf-syntax-ns#"
   xmlns:svg="http://www.w3.org/2000/svg"
   xmlns="http://www.w3.org/2000/svg"
   id="svg4"
   version="1.1"
   xml:space="default"
   font-size="0"
   preserveAspectRatio="xMidYMid"
   viewBox="0, 0, 20, 28"
   overflow="inherit"
   height="28"
   width="20"
   y="0"
   x="0">
  <metadata
     id="metadata10">
    <rdf:RDF>
      <cc:Work
         rdf:about="">
        <dc:format>image/svg+xml</dc:format>
        <dc:type
           rdf:resource="http://purl.org/dc/dcmitype/StillImage" />
      </cc:Work>
    </rdf:RDF>
  </metadata>
  <defs
     id="defs8" />
  <g
     id="text2"
     style="font-style:italic;font-size:20px;font-family:'Menoe Grotesque Pro';fill:#000000"
     aria-label="г">
    <path
       id="path12"
       style="font-style:italic;font-size:20px;font-family:'Menoe Grotesque Pro';fill:#000000"
       d="m 7.2,11.6 0.68,1.18 c 0.94,-0.68 2.12,-1.04 3.2,-1.04 1.48,0 2.02,0.46 1.9,1.26 -0.12,0.78 -0.82,1.08 -3.14,1.48 -2.34,0.42 -3.34,1.24 -3.58,2.6 -0.32,1.88 0.96,3.1 3.46,3.1 1.82,0 3.56,-0.56 4.7,-1.5 l -0.94,-1.16 c -0.98,0.76 -2.38,1.12 -3.68,1.12 -1.3,0 -2.04,-0.44 -1.88,-1.38 0.1,-0.62 0.52,-1.16 3.32,-1.58 1.84,-0.28 3.18,-0.96 3.42,-2.44 0.32,-2.08 -1.36,-3.04 -3.42,-3.04 -1.48,0 -2.82,0.52 -4.04,1.4 z" />
  </g>
</svg>
