<?xml version="1.0" encoding="UTF-8" standalone="no"?>
<svg
   xmlns:dc="http://purl.org/dc/elements/1.1/"
   xmlns:cc="http://creativecommons.org/ns#"
   xmlns:rdf="http://www.w3.org/1999/02/22-rdf-syntax-ns#"
   xmlns:svg="http://www.w3.org/2000/svg"
   xmlns="http://www.w3.org/2000/svg"
   id="svg4"
   version="1.1"
   xml:space="default"
   font-size="0"
   preserveAspectRatio="xMidYMid"
   viewBox="0, 0, 20, 28"
   overflow="inherit"
   height="28"
   width="20"
   y="0"
   x="0">
  <metadata
     id="metadata10">
    <rdf:RDF>
      <cc:Work
         rdf:about="">
        <dc:format>image/svg+xml</dc:format>
        <dc:type
           rdf:resource="http://purl.org/dc/dcmitype/StillImage" />
      </cc:Work>
    </rdf:RDF>
  </metadata>
  <defs
     id="defs8" />
  <g
     id="text2"
     style="font-style:italic;font-size:20px;font-family:'Menoe Grotesque Pro';fill:#000000"
     aria-label="ы">
    <path
       id="path12"
       style="font-style:italic;font-size:20px;font-family:'Menoe Grotesque Pro';fill:#000000"
       d="M 11.68,17.18 C 12.04,14.8 10.7,13.56 9.48,13.56 8.94,13.56 8.5,13.7 8.12,13.88 L 8.68,10.4 H 7.14 l -0.96,6.08 c -0.4,2.52 0.6,3.72 2.3,3.72 1.52,0 2.9,-1.04 3.2,-3.02 z M 12.76,20 h 1.56 c 0.1,-0.72 0.48,-3.12 0.74,-4.8 0.28,-1.68 0.54,-3.36 0.78,-4.8 H 14.28 C 14.06,11.84 13.8,13.52 13.54,15.2 13.26,16.88 13,18.56 12.76,20 Z M 7.7,16.58 7.92,15.16 c 0.26,-0.14 0.56,-0.22 0.96,-0.22 0.78,0 1.32,0.9 1.14,2.08 C 9.84,18.2 9.3,18.76 8.6,18.76 7.86,18.76 7.42,18.3 7.7,16.58 Z" />
  </g>
</svg>
