<?xml version="1.0" encoding="UTF-8" standalone="no"?>
<svg
   xmlns:dc="http://purl.org/dc/elements/1.1/"
   xmlns:cc="http://creativecommons.org/ns#"
   xmlns:rdf="http://www.w3.org/1999/02/22-rdf-syntax-ns#"
   xmlns:svg="http://www.w3.org/2000/svg"
   xmlns="http://www.w3.org/2000/svg"
   id="svg4"
   version="1.1"
   xml:space="default"
   font-size="0"
   preserveAspectRatio="xMidYMid"
   viewBox="0, 0, 20, 28"
   overflow="inherit"
   height="28"
   width="20"
   y="0"
   x="0">
  <metadata
     id="metadata10">
    <rdf:RDF>
      <cc:Work
         rdf:about="">
        <dc:format>image/svg+xml</dc:format>
        <dc:type
           rdf:resource="http://purl.org/dc/dcmitype/StillImage" />
      </cc:Work>
    </rdf:RDF>
  </metadata>
  <defs
     id="defs8" />
  <g
     id="text2"
     style="font-size:20px;font-family:'Menoe Grotesque Pro';fill:#000000"
     aria-label="ф">
    <path
       id="path12"
       style="font-size:20px;font-family:'Menoe Grotesque Pro';fill:#000000"
       d="m 15.24,15.2 c 0,-2.7 -1.58,-4.68 -4.48,-4.96 0,-1.56 0.02,-2.92 0.02,-3.64 h -1.6 c 0,0.72 0.02,2.08 0.02,3.64 -2.88,0.3 -4.46,2.26 -4.46,4.96 0,2.72 1.58,4.68 4.46,4.96 0,1.58 0,2.9 -0.02,3.64 h 1.6 c -0.02,-0.74 -0.02,-2.06 -0.02,-3.64 2.9,-0.28 4.48,-2.24 4.48,-4.96 z m -4.5,0 c 0,-1.12 0,-2.38 0,-3.58 2.04,0.28 3,1.7 3,3.58 0,1.86 -0.96,3.3 -3,3.58 0,-1.14 0,-2.36 0,-3.58 z m -4.5,0 c 0,-1.88 0.94,-3.28 2.98,-3.56 0,1.18 0,2.44 0,3.56 0,1.2 0,2.42 0,3.56 C 7.18,18.48 6.24,17.06 6.24,15.2 Z" />
  </g>
</svg>
