<?xml version="1.0" encoding="UTF-8" standalone="no"?>
<svg
   xmlns:dc="http://purl.org/dc/elements/1.1/"
   xmlns:cc="http://creativecommons.org/ns#"
   xmlns:rdf="http://www.w3.org/1999/02/22-rdf-syntax-ns#"
   xmlns:svg="http://www.w3.org/2000/svg"
   xmlns="http://www.w3.org/2000/svg"
   id="svg4"
   version="1.1"
   xml:space="default"
   font-size="0"
   preserveAspectRatio="xMidYMid"
   viewBox="0, 0, 20, 28"
   overflow="inherit"
   height="28"
   width="20"
   y="0"
   x="0">
  <metadata
     id="metadata10">
    <rdf:RDF>
      <cc:Work
         rdf:about="">
        <dc:format>image/svg+xml</dc:format>
        <dc:type
           rdf:resource="http://purl.org/dc/dcmitype/StillImage" />
      </cc:Work>
    </rdf:RDF>
  </metadata>
  <defs
     id="defs8" />
  <g
     id="text2"
     style="font-style:italic;font-size:20px;font-family:'Menoe Grotesque Pro';fill:#000000"
     aria-label="Э">
    <path
       id="path12"
       style="font-style:italic;font-size:20px;font-family:'Menoe Grotesque Pro';fill:#000000"
       d="M 16.08,13.56 C 16.72,9.5 15.06,6.78 11.84,6.78 9.6,6.78 7.64,8.3 6.6,10.74 l 1.24,0.96 c 0.7,-2.08 2.24,-3.4 3.96,-3.4 1.94,0 3,1.76 2.78,4.44 H 8.84 l -0.22,1.48 h 5.74 c -0.6,2.68 -2.24,4.44 -4.22,4.44 -1.78,0 -2.92,-1.46 -2.88,-3.78 L 5.7,15.56 c 0.12,2.84 1.8,4.62 4.4,4.62 2.98,0 5.34,-2.64 5.98,-6.62 z" />
  </g>
</svg>
