<?xml version="1.0" encoding="UTF-8" standalone="no"?>
<svg
   xmlns:dc="http://purl.org/dc/elements/1.1/"
   xmlns:cc="http://creativecommons.org/ns#"
   xmlns:rdf="http://www.w3.org/1999/02/22-rdf-syntax-ns#"
   xmlns:svg="http://www.w3.org/2000/svg"
   xmlns="http://www.w3.org/2000/svg"
   id="svg4"
   version="1.1"
   xml:space="default"
   font-size="0"
   preserveAspectRatio="xMidYMid"
   viewBox="0, 0, 20, 28"
   overflow="inherit"
   height="28"
   width="20"
   y="0"
   x="0">
  <metadata
     id="metadata10">
    <rdf:RDF>
      <cc:Work
         rdf:about="">
        <dc:format>image/svg+xml</dc:format>
        <dc:type
           rdf:resource="http://purl.org/dc/dcmitype/StillImage" />
      </cc:Work>
    </rdf:RDF>
  </metadata>
  <defs
     id="defs8" />
  <g
     id="text2"
     style="font-style:italic;font-size:20px;font-family:'Menoe Grotesque Pro';fill:#000000"
     aria-label="ะด">
    <path
       id="path12"
       style="font-style:italic;font-size:20px;font-family:'Menoe Grotesque Pro';fill:#000000"
       d="M 15.16,15.08 C 16.14,9.48 13.46,6.4 8.88,6.4 L 8.52,7.74 c 3.5,0 5.3,2.12 5.36,4.48 -0.42,-1.12 -1.48,-1.82 -2.8,-1.82 -2.22,0 -4.28,1.76 -4.76,4.7 -0.48,2.94 1.08,5.1 3.74,5.1 2.54,0 4.58,-2.18 5.1,-5.12 z m -3.94,-3.24 c 1.46,0 2.54,1.32 2.22,3.38 -0.3,2.02 -1.72,3.5 -3.34,3.5 -1.58,0 -2.52,-1.44 -2.2,-3.42 0.32,-2.1 1.8,-3.46 3.32,-3.46 z" />
  </g>
</svg>
