<?xml version="1.0" encoding="UTF-8" standalone="no"?>
<svg
   xmlns:dc="http://purl.org/dc/elements/1.1/"
   xmlns:cc="http://creativecommons.org/ns#"
   xmlns:rdf="http://www.w3.org/1999/02/22-rdf-syntax-ns#"
   xmlns:svg="http://www.w3.org/2000/svg"
   xmlns="http://www.w3.org/2000/svg"
   id="svg4"
   version="1.1"
   xml:space="default"
   font-size="0"
   preserveAspectRatio="xMidYMid"
   viewBox="0, 0, 20, 28"
   overflow="inherit"
   height="28"
   width="20"
   y="0"
   x="0">
  <metadata
     id="metadata10">
    <rdf:RDF>
      <cc:Work
         rdf:about="">
        <dc:format>image/svg+xml</dc:format>
        <dc:type
           rdf:resource="http://purl.org/dc/dcmitype/StillImage" />
      </cc:Work>
    </rdf:RDF>
  </metadata>
  <defs
     id="defs8" />
  <g
     id="text2"
     style="font-size:20px;font-family:'Menoe Grotesque Pro';fill:#000000"
     aria-label="Q">
    <path
       id="path12"
       style="font-size:20px;font-family:'Menoe Grotesque Pro';fill:#000000"
       d="M 15.02,13.52 C 15.02,9.48 13,6.8 10,6.8 c -3.02,0 -5.02,2.68 -5.02,6.72 0,4 2,6.68 5.02,6.68 0.54,0 1.04,-0.08 1.52,-0.26 l 1.42,2.38 H 14.8 L 12.84,19.2 c 1.36,-1.12 2.18,-3.14 2.18,-5.68 z M 10,18.68 c -2.02,0 -3.34,-2.08 -3.34,-5.16 0,-3.12 1.32,-5.2 3.34,-5.2 2,0 3.34,2.08 3.34,5.2 0,3.08 -1.34,5.16 -3.34,5.16 z" />
  </g>
</svg>
