<?xml version="1.0" encoding="UTF-8" standalone="no"?>
<svg
   xmlns:dc="http://purl.org/dc/elements/1.1/"
   xmlns:cc="http://creativecommons.org/ns#"
   xmlns:rdf="http://www.w3.org/1999/02/22-rdf-syntax-ns#"
   xmlns:svg="http://www.w3.org/2000/svg"
   xmlns="http://www.w3.org/2000/svg"
   id="svg4"
   version="1.1"
   xml:space="default"
   font-size="0"
   preserveAspectRatio="xMidYMid"
   viewBox="0, 0, 20, 28"
   overflow="inherit"
   height="28"
   width="20"
   y="0"
   x="0">
  <metadata
     id="metadata10">
    <rdf:RDF>
      <cc:Work
         rdf:about="">
        <dc:format>image/svg+xml</dc:format>
        <dc:type
           rdf:resource="http://purl.org/dc/dcmitype/StillImage" />
      </cc:Work>
    </rdf:RDF>
  </metadata>
  <defs
     id="defs8" />
  <g
     id="text2"
     style="font-style:italic;font-size:20px;font-family:'Menoe Grotesque Pro';fill:#000000"
     aria-label="b">
    <path
       id="path12"
       style="font-style:italic;font-size:20px;font-family:'Menoe Grotesque Pro';fill:#000000"
       d="m 15.46,15.2 c 0.52,-3.16 -1.06,-5 -3.4,-5 -1.08,0 -2.16,0.5 -3,1.4 0.08,-0.3 0.18,-0.8 0.24,-1.2 L 9.9,6.6 H 8.32 L 6.2,20 h 1.58 c 0.06,-0.44 0.12,-0.94 0.14,-1.38 0.62,1.02 1.68,1.58 2.96,1.58 2.1,0 4.1,-1.86 4.58,-5 z m -3.8,-3.56 c 1.54,0 2.54,1.4 2.2,3.56 -0.34,2.16 -1.8,3.56 -3.32,3.56 -1.48,0 -2.52,-1.36 -2.22,-3.48 L 8.36,15.1 c 0.32,-2.06 1.82,-3.46 3.3,-3.46 z" />
  </g>
</svg>
