<?xml version="1.0" encoding="UTF-8" standalone="no"?>
<svg
   xmlns:dc="http://purl.org/dc/elements/1.1/"
   xmlns:cc="http://creativecommons.org/ns#"
   xmlns:rdf="http://www.w3.org/1999/02/22-rdf-syntax-ns#"
   xmlns:svg="http://www.w3.org/2000/svg"
   xmlns="http://www.w3.org/2000/svg"
   id="svg4"
   version="1.1"
   xml:space="default"
   font-size="0"
   preserveAspectRatio="xMidYMid"
   viewBox="0, 0, 20, 28"
   overflow="inherit"
   height="28"
   width="20"
   y="0"
   x="0">
  <metadata
     id="metadata10">
    <rdf:RDF>
      <cc:Work
         rdf:about="">
        <dc:format>image/svg+xml</dc:format>
        <dc:type
           rdf:resource="http://purl.org/dc/dcmitype/StillImage" />
      </cc:Work>
    </rdf:RDF>
  </metadata>
  <defs
     id="defs8" />
  <g
     id="text2"
     style="font-style:italic;font-size:20px;font-family:'Menoe Grotesque Pro';fill:#000000"
     aria-label="Ю">
    <path
       id="path12"
       style="font-style:italic;font-size:20px;font-family:'Menoe Grotesque Pro';fill:#000000"
       d="M 16.4,13.78 C 17.06,9.6 16.14,6.8 13.8,6.8 11.82,6.8 10.18,9.06 9.5,12.52 H 7.94 L 8.82,7 H 7.24 L 6.18,13.7 6.14,14 5.2,20 h 1.56 l 0.96,-6 h 1.54 c -0.44,3.74 0.52,6.2 2.6,6.2 2.2,0 3.94,-2.54 4.54,-6.42 z m -4.34,4.88 c -1.14,0 -1.58,-2.04 -1.1,-5.14 0.48,-3.12 1.58,-5.18 2.74,-5.18 1.16,0 1.6,2.06 1.1,5.18 -0.48,3.1 -1.58,5.14 -2.74,5.14 z" />
  </g>
</svg>
