<svg id="5700a7f4-84e7-40d5-9ff5-fab8773acd33" data-name="Layer 1" xmlns="http://www.w3.org/2000/svg" viewBox="0 0 234 26.31">
  <title>ByInteractopus</title>
  <g>
    <path
      d="M8.79,17.68a4.9,4.9,0,0,1-4-1.95c.05.57.05,1.12.05,1.69H2.81c0-2.6,0-5.64,0-8.71s0-6.11,0-8.71H4.89V4.94c0,.57,0,1.3-.05,1.66a5,5,0,0,1,4-1.92c2.91,0,5.3,2.39,5.3,6.5S11.7,17.68,8.79,17.68ZM12,11.18c0-2.81-1.64-4.63-3.67-4.63S4.63,8.37,4.63,11.18s1.69,4.63,3.67,4.63S12,14,12,11.18Z"/>
    <path d="M22.13,22.36H19.89l2.42-5.23L16.87,4.94h2.42l4.16,9.62,4.26-9.62H29.9Z"/>
    <path d="M49.14.52H60.06V2.44H55.64V15.5h4.42v1.92H49.14V15.5h4.42V2.44H49.14Z"/>
    <path d="M66.9,17.42H64.82c0-1.87,0-4.06,0-6.24s0-4.37,0-6.24H66.9c0,.57,0,1.09-.05,1.64a4.86,4.86,0,0,1,4-1.9,4.65,4.65,0,0,1,4.73,4.89v7.85H73.45V9.88c0-2.26-1.33-3.33-3-3.33A3.37,3.37,0,0,0,66.9,9.88Z"/>
    <path d="M86.61,17.68A4.31,4.31,0,0,1,81.9,13V6.86H79.22V4.94H81.9V1.3L84,1V4.94h7.41V6.86H84v5.67c0,2,1,3.09,2.6,3.09a2.35,2.35,0,0,0,2.63-2.47,6,6,0,0,0-.47-2.37l1.92-.52a7.53,7.53,0,0,1,.62,2.94A4.33,4.33,0,0,1,86.61,17.68Z"/>
    <path
      d="M107.46,12.17H97.32a4.27,4.27,0,0,0,4.5,3.64,4.52,4.52,0,0,0,3.9-2l1.64,1a6.59,6.59,0,0,1-12-3.61,6.18,6.18,0,0,1,6.32-6.5,5.76,5.76,0,0,1,5.93,6.14A8.31,8.31,0,0,1,107.46,12.17Zm-10.17-1.9h8.22a3.91,3.91,0,0,0-4.06-3.72A4.05,4.05,0,0,0,97.29,10.27Z"/>
    <path d="M111.43,4.94h5.25a15.21,15.21,0,0,1-.05,1.56,4.61,4.61,0,0,1,3.74-1.82,4.87,4.87,0,0,1,3.72,1.59l-1.53,1.3a3.44,3.44,0,0,0-5.88,2.31V15.5h5.07v1.92H110.84V15.5h3.8V6.86h-3.2Z"/>
    <path
      d="M137.28,17.68a2.69,2.69,0,0,1-2.7-1.9,5.46,5.46,0,0,1-4.16,1.9c-2.39,0-4-1.3-4-3.25s1.56-3.35,4-3.85a37.68,37.68,0,0,1,4.08-.57V9.08c0-1.82-1.48-2.5-2.91-2.5-1.61,0-2.81.78-2.81,1.87,0,0,0,.16.05.34l-1.95.39c-.05-.36-.1-.7-.1-.78,0-2.16,2.13-3.72,5-3.72,3,0,4.84,1.66,4.84,4.13V15a.85.85,0,0,0,.88.91c.75,0,1.2-.83,1.2-2.13l1.77.42C140.45,16.28,139.2,17.68,137.28,17.68Zm-6.63-1.79a4.84,4.84,0,0,0,3.87-2V11.6a29.24,29.24,0,0,0-4.13.7,2.14,2.14,0,0,0-1.77,1.9C128.62,15.21,129.43,15.89,130.65,15.89Z"/>
    <path d="M154.44,13.83a6,6,0,0,1-5.75,3.85,6.14,6.14,0,0,1-6.21-6.5,6.16,6.16,0,0,1,6.21-6.5,6,6,0,0,1,6,4.65l-1.92.62a4.08,4.08,0,0,0-4.06-3.22,4.21,4.21,0,0,0-4.21,4.45,4.21,4.21,0,0,0,4.21,4.45A4,4,0,0,0,152.54,13Z"/>
    <path d="M164.6,17.68A4.31,4.31,0,0,1,159.9,13V6.86h-2.68V4.94h2.68V1.3L162,1V4.94h7.41V6.86H162v5.67c0,2,1,3.09,2.6,3.09a2.35,2.35,0,0,0,2.63-2.47,6,6,0,0,0-.47-2.37l1.92-.52a7.55,7.55,0,0,1,.62,2.94A4.33,4.33,0,0,1,164.6,17.68Z"/>
    <path d="M173.16,11.18a6.23,6.23,0,1,1,12.45,0,6.23,6.23,0,1,1-12.45,0Zm10.32,0a4.11,4.11,0,1,0-8.19,0,4.11,4.11,0,1,0,8.19,0Z"/>
    <path
      d="M192.09,22.36H190c0-2.6,0-5.67,0-8.71s0-6.11,0-8.71h2.08c0,.57,0,1.09-.05,1.66a5,5,0,0,1,4-1.92c2.94,0,5.3,2.39,5.3,6.5s-2.37,6.5-5.3,6.5a4.9,4.9,0,0,1-4-1.95c0,.42.05,1.12.05,1.69Zm7.07-11.18c0-2.81-1.66-4.63-3.67-4.63s-3.67,1.82-3.67,4.63,1.69,4.63,3.67,4.63S199.16,14,199.16,11.18Z"/>
    <path d="M213.77,12.61V4.94h2.08c0,1.87,0,4.06,0,6.24s0,4.37,0,6.24h-2.11a14.12,14.12,0,0,1,.08-1.53A4.81,4.81,0,0,1,210,17.68a4.53,4.53,0,0,1-4.65-4.76v-8h2.13v7.67c0,2.18,1.27,3.2,2.91,3.2A3.24,3.24,0,0,0,213.77,12.61Z"/>
    <path
      d="M230.3,8a7.54,7.54,0,0,0-4.45-1.4c-1.64,0-2.39.7-2.39,1.69,0,1.27,1.22,1.46,3.85,2,2.39.49,4.47,1.3,4.47,3.67s-2,3.77-5.25,3.77a8.76,8.76,0,0,1-5.9-1.95l1.56-1.54a7.27,7.27,0,0,0,4.6,1.61c1.72,0,2.76-.62,2.76-1.64,0-1.27-1-1.38-4.32-2.18-2.31-.57-3.82-1.4-3.82-3.72s2.21-3.59,4.71-3.59a10,10,0,0,1,5.43,1.66Z"/>
    <path d="M0,26.31v-2H234v2Z"/>
  </g>
</svg>
