<?xml version="1.0" encoding="utf-8"?>
<!-- Generator: Adobe Illustrator 21.0.2, SVG Export Plug-In . SVG Version: 6.00 Build 0)  -->
<svg version="1.1" id="Layer_1" xmlns="http://www.w3.org/2000/svg" xmlns:xlink="http://www.w3.org/1999/xlink" x="0px" y="0px"
	 viewBox="0 0 78 26.3" style="enable-background:new 0 0 78 26.3;" xml:space="preserve">
<style type="text/css">
	.st0{fill:#E20C0C;}
</style>
<g>
	<path class="st0" d="M13.2,7.2c-0.4-3-2.3-4.9-4.6-4.9c-2.8,0-4.7,2.7-4.7,6.6c0,4.1,1.9,6.8,4.7,6.8c2.3,0,4-1.7,4.5-4.4l1.8,1.2
		c-0.9,3.2-3.3,5.2-6.3,5.2c-4.1,0-6.8-3.5-6.8-8.8c0-5.2,2.7-8.6,6.8-8.6c3.3,0,5.8,2.3,6.6,6L13.2,7.2z"/>
	<path class="st0" d="M18.3,0h6.9c0,1.9,0,5.3,0,8.7v6.8h4.8v1.9H17.3v-1.9h5.8V1.9h-4.8V0z"/>
	<path class="st0" d="M45.1,12.2H34.9c0.4,2.2,2.1,3.6,4.5,3.6c1.6,0,3.2-0.8,3.9-2l1.6,1c-1.1,1.8-3.1,2.9-5.6,2.9
		c-3.7,0-6.5-2.7-6.5-6.5c0-3.8,2.7-6.5,6.3-6.5c3.4,0,5.9,2.4,5.9,6.1C45.2,11.2,45.1,11.7,45.1,12.2z M34.9,10.3h8.2
		c-0.3-2.3-1.8-3.7-4.1-3.7C36.8,6.6,35.2,8,34.9,10.3z"/>
	<path class="st0" d="M59.3,17.7c-1.4,0-2.4-0.9-2.7-1.9c-1,1.2-2.5,1.9-4.2,1.9c-2.4,0-4-1.3-4-3.2c0-2.1,1.6-3.4,4-3.8
		c1.3-0.3,2.6-0.4,4.1-0.6V9.1c0-1.8-1.5-2.5-2.9-2.5c-1.6,0-2.8,0.8-2.8,1.9c0,0,0,0.2,0.1,0.3l-2,0.4c-0.1-0.4-0.1-0.7-0.1-0.8
		c0-2.2,2.1-3.7,5-3.7c3,0,4.8,1.7,4.8,4.1V15c0,0.5,0.3,0.9,0.9,0.9c0.8,0,1.2-0.8,1.2-2.1l1.8,0.4C62.5,16.3,61.2,17.7,59.3,17.7z
		 M52.6,15.9c1.5,0,3-0.8,3.9-2v-2.3c-1.6,0.2-3.1,0.4-4.1,0.7c-1.1,0.3-1.8,1.1-1.8,1.9C50.6,15.2,51.4,15.9,52.6,15.9z"/>
	<path class="st0" d="M64.6,4.9h5.3c0,0.6,0,1-0.1,1.6c0.9-1.2,2.2-1.8,3.7-1.8c1.5,0,3,0.7,3.7,1.6l-1.5,1.3c-0.5-0.6-1.4-1-2.5-1
		c-2,0-3.3,1.3-3.3,3.3v5.6H75v1.9H64v-1.9h3.8V6.9h-3.2V4.9z"/>
	<path class="st0" d="M0,26.3v-2h78v2H0z"/>
</g>
</svg>
